<?xml version="1.0" encoding="utf-8"?>
<!-- Generator: Adobe Illustrator 19.2.1, SVG Export Plug-In . SVG Version: 6.00 Build 0)  -->
<svg version="1.1" xmlns="http://www.w3.org/2000/svg" xmlns:xlink="http://www.w3.org/1999/xlink" x="0px" y="0px"
	 viewBox="0 0 1121.9 250" enable-background="new 0 0 1121.9 250" xml:space="preserve">
<g id="Layer_2">
</g>
<g id="Drawing_xA0_Image_1_">
	<g>
		<path fill="#1DF1FF" d="M285.8,94.1c1-0.2,1.8,0.1,2.5,0.8c0.3,0.7,1,0.9,1.7,0.7c3.2,3,6.5,5.9,9.5,9c5.6,5.8,12.5,8.1,20.4,8.1
			c0.1,0,0.2,0,0.4,0c2.5-0.1,5.2,0.5,7.4-0.3c2.6-0.9,1.6-4.1,2.4-6.2c5.2-15.2,23.1-20.4,35.8-10.2c1.2,1,1.9,1.2,3.3,0.3
			c2.4-1.5,5-2.8,7.8-3.3c1.2-0.2,2.4-0.4,3.3,0.7c1,1.3-0.1,2.1-0.7,3.1c-1.1,1.8-2.5,3.4-4.6,5.2c2.9,0.2,5.1,0.3,7.4,0.5
			c1.5,1.5,5.9,1.4,2.8,5.3c0,0,0,0,0,0c-1.4,0.1-2.8-0.2-4.2-0.5c-2.4-0.5-6.8,2.2-6,3.5c1.1,1.7,0.1,2.9-0.2,4.3
			c-0.3,1.8-0.7,3.7,0.3,5.5c-0.1,0.7-0.2,1.4-0.3,2.1c-1.5,0.7-1.7,2.2-1.9,3.5c-0.5,3-0.7,6-1,9c0,3.3-2.3,5.6-3.9,8.2
			c-4.9,7.5-10.2,14.6-17.1,20.6c-9.7,8.5-21.3,11.3-33.5,12.3c-6.8,0.6-13.6,0.6-20.4-0.8c-6.7-1.3-11.6-5.1-16.2-9.6
			c-0.5-0.5-0.7-1.3-1.6-1.2c0-0.7,0-1.4,0-2.1c4.5-2.2,9.4-1.3,14.2-2c3.1-0.5,6.3-0.2,9.3-3.1c-6.2-1.4-9.8-5.2-12-10.5
			c-0.4-1.1-1.1-2.2-0.2-3.3c1.1-1.2,2.3-1,3.5-0.3c0.9,0.1,2,1.1,2.5-0.8c0.3-1.3,1-2.4-0.7-3.3c-2.5-1.3-4-3.2-3.7-6.2
			c0.1-0.9-0.4-2.2-1.3-2.3c-3.6-0.4-3.9-3.4-5-5.8c-1.7-3.5-1.7-3.6,2.1-3.8c3.4-0.2,4.2-1.4,2.7-4.5c-0.9-1.9-1.9-3.8-2-6
			c-0.1-1.8,0.6-4-2.7-3.2c-1,0.3-1.4-1-1.6-2c-0.4-1.8-1-3.6-2.3-5c-0.7-2.2-0.5-4.3,0.5-6.3C283.4,94.2,284.6,94.1,285.8,94.1z"/>
		<path fill="#20F2FF" d="M1028.2,113.1c-1-0.7-2-1.3-3-2c-0.1-0.8-0.5-1.6-1.1-2.2c0.2-2.4,1.6-4.5,1.6-7c0-1.2,0.2-2.4,0.2-3.6
			c-0.3-5.1-3-7.2-7.8-5.6c-3.6,1.2-7.3,2.3-10.6,4.3c-1,0.6-2,0.6-3.1,0.2c-7.6-2.8-15.1-2.8-22.5,0.7c-1.8,0.8-3,0.2-4-1
			c-2.8-3.4-6.8-4-10.8-4.8c-1.2-0.3-2-0.3-2.1,1.5c-0.2,3.8-0.8,7.6,1.1,11.1c0.4,0.7-0.1,1.1-0.5,1.6c-1,1.2-2,2.5-3,3.7
			c-4.9,3.3-6.8,7.7-5.3,12.7c-0.8,3.6,0.2,7.2,0.8,10.7c0.7,3.8,4,5.9,7,7.9c7.2,4.7,14.9,7.9,23.7,7.4c0.9-0.1,2-0.1,2.3,1
			c0.4,1.2-0.1,2.4-1.2,2.8c-3.7,1.4-6,4.1-7.7,7.6c-1,2.1-3.2,1.4-4.9,1c-5.2-1.2-10.2-3.1-14.5-6.4c-1.7-1.3-3.5-2.4-5.2-3.5
			c-0.6-0.4-1.4-0.5-1.9,0.3c-0.3,0.6-0.1,1.2,0.3,1.7c1.1,1.2,2,2.6,3.2,3.6c5.3,4.3,10.2,9.1,15.9,12.9c4.5,2.9,6.7,9.9,5.1,15.1
			c-0.4,1.3-1.3,1.8-2.6,1.3c-6-2-12.1-3.7-17.2-7.7c-1.3-3.6-5.3-6.5-7.9-6c-5.8-5.7-11.6-11.6-15.2-19
			c-6.6-13.4-7.4-27.7-5.6-42.4c1.5-12,9.3-19.8,17-27.6c5.2-5.3,11.4-9.6,18.1-12.9c10.1-5.1,20.7-8.1,32.2-7.4
			c8.6,0.5,15.8,4.8,23.4,8c0.8,0.3,1.3,1.2,2,1.8c0.1,0.8,0.7,1,1.4,0.9c0.9,0.5,1.9,1,2.8,1.5c2.2,2.4,5.1,4,7.8,5.9
			c0,0,0.1,0.1,0.1,0.1c1.8,3.6,4,6.8,8.3,7.8c0.9,1.1,1.8,2.3,2.7,3.4c-0.2,1.4-0.3,2.9,0.7,4.1c3,3.6,4.3,7.8,5.9,12.3
			c2.7,7.7,2.3,15.4,2.4,23.2c0,2.1,0,4.7-1.2,6.1c-4.4,5.4-6.5,12.1-11.5,17.1c-4.3,4.4-7.6,9.7-12.4,13.9c1.6,1,3.3,1.9,1.2,4
			c-5.1,5.2-11.1,8.8-17.6,11.9c-1.5,0.7-4.2-0.2-4.1,2.8c0,0.2-0.2,0.3-0.3,0.5c-0.4,0.1-0.8,0.2-1.2,0.3c-0.7-0.7-1-1.8-2-2.3
			c1.1-5.5,1.9-11,1.4-16.7c-0.4-5.1-1.8-9.6-6-13c-2.4-1.9-1.3-4.8,2.2-6.2c6.4-2.5,12.8-4.8,18.4-8.9c1.4-1,2.8-2,4.1-3
			c2.8-0.7,3.5-3.5,4.7-5.5c1.9-3,2.5-6.2,1.1-9.9c-0.8-2.2-3.7-4.5-1.1-7.4c0.4-0.5,0-1.8-1.1-1.6
			C1029.9,114.4,1029.4,112.9,1028.2,113.1z M1039,89.5c0.1,0,0.2,0.1,0.3,0.1C1039.2,89.6,1039.1,89.5,1039,89.5
			c-0.2-0.2-0.4-0.4-0.6-0.6c-0.3-0.5-0.6-1.1-1.3-0.9c-0.1,0-0.3,0.3-0.2,0.4c0.3,0.7,1,0.5,1.5,0.6
			C1038.6,89.1,1038.8,89.3,1039,89.5z M1035.4,87.1c0.1,0.1,0.2,0.2,0.3,0.2C1035.6,87.2,1035.5,87.2,1035.4,87.1
			c-3.7-5.5-10-6.9-15.3-9.9C1025.1,80.7,1029.9,84.4,1035.4,87.1z M1044,126.2c-0.3,0.5-0.5,0.9-0.7,1.4c-0.2,0.4-0.5,0.9-0.7,1.3
			c-1.7,2.5-1.6,3,0.6,4.5c0.7,0.5,0.6,1.2,0.7,1.9c0.1,0.9,0.3,1.8,0.5,2.6c0.3,1.2,1.1,1.2,1.7,0.4c2.2-3.1,4.4-6.3,3-10.4
			c-0.4-1.3-0.7-2.9-2.4-1C1045.5,128.2,1044.9,126.7,1044,126.2z M1043.5,109.1c0.9-3.9-0.4-6.5-1.4-9.2c-0.6-1.7-1.7-3.2-1.7-5
			c0-0.6,0.8-1.3,0.1-1.9c-0.1-0.1-0.6-0.1-0.8,0.1c-0.8,0.5-0.8,1.4-0.6,2.2C1040.4,99.5,1041.9,103.9,1043.5,109.1z M1016,166.3
			c1.8-1,3.3-3,5-4.6c0.4-0.3,1.2-0.8,0.5-1.4c-0.5-0.5-1.2-0.8-1.9-0.2c-1.6,1.6-3.3,3.2-4.8,4.9
			C1014,165.8,1014.7,166.1,1016,166.3z M1050.5,118.1c-1.9-2.1,2.3-4.5-0.7-6.8c-0.9,1.9-0.4,5.1-4.1,4.1c0.4,1.3,0.7,2.4,1,3.4
			C1047.4,115.5,1049.1,118.7,1050.5,118.1z M1040.9,117.2c0.4,1.9,0.8,3.5,3,3.6c0.7,0,1.3-0.7,1.2-1.4
			C1044.5,117.2,1042.8,117.2,1040.9,117.2z M955.1,118.5c-0.8,1.1-2,1.7-1.7,3c0.1,0.4,0.6,0.5,1,0.2
			C955.4,121,956,120.1,955.1,118.5z M1037.6,105.7c0.4-1.4,0.1-2.2-0.7-3.1C1036.4,103.7,1036.8,104.4,1037.6,105.7z M1042.8,137.8
			c-0.3-0.5-0.5-0.7-0.7-0.9c-0.2,0.1-0.5,0.3-0.6,0.5c-0.1,0.4,0,0.8,0.5,0.8C1042.3,138.1,1042.6,137.9,1042.8,137.8z
			 M1018.1,76.4c0.2,0.1,0.3,0.1,0.5,0.2c0.1-0.2,0.2-0.4,0.2-0.5c0-0.1-0.3-0.3-0.5-0.2C1018.2,75.9,1018.2,76.2,1018.1,76.4z
			 M1036.5,100.9c0-0.1-0.1-0.1-0.1-0.2c-0.1,0.1-0.1,0.1-0.2,0.2c0.1,0.1,0.2,0.2,0.2,0.2C1036.4,101.1,1036.5,101,1036.5,100.9z
			 M1038.9,108.8c0-0.1-0.1-0.1-0.1-0.2c-0.1,0.1-0.1,0.1-0.2,0.2c0.1,0.1,0.2,0.2,0.2,0.2C1038.9,108.9,1038.9,108.9,1038.9,108.8z
			 M1038.2,106.8c-0.1,0-0.2,0-0.2,0c0,0.1,0,0.2-0.1,0.2c0.1,0,0.2,0,0.3-0.1C1038.3,107,1038.2,106.9,1038.2,106.8z M952.1,123.2
			c0.1,0,0.1-0.1,0.2-0.1c-0.1-0.1-0.1-0.1-0.2-0.2c-0.1,0.1-0.2,0.2-0.2,0.2C951.9,123.1,952,123.2,952.1,123.2z"/>
		<path fill="#23F3FF" d="M726.4,181c-7.4,0.3-14.7-0.7-22-0.9c-6.8-0.2-8.2-1.6-7.7-8.4c1.2-15.7,0-31.3,0.2-47
			c0.1-6.9,0-13.7,0.1-20.6c0-2.2-0.5-4.1-1.4-6c-1.6-3.4,0-5,3.2-4.9c6.7,0.2,13.4-0.3,20.1,0.2c6.5,0.5,13.1,0.2,19.6,0.3
			c11.9,0.2,19.9,6,23.8,17.1c2.5,7.1,1.7,13.6-3.5,19.2c-2.6,2.8-2.9,4.5,0.6,7c7.1,5.1,7.9,13,6.8,20.8
			c-2.2,14.9-11.6,21.7-27.4,23C734.7,181.3,730.5,181,726.4,181z M754.7,146.5c0.1,0.1,0.3,0.1,0.4,0.2
			C754.9,146.7,754.8,146.6,754.7,146.5c-0.1-0.7-0.1-1.5-1.2-1.4c-0.1,0-0.3,0.2-0.3,0.3C753.1,146.4,754,146.4,754.7,146.5z
			 M735.5,174.4c0.1,0.7,0,1.6,1.2,1.5c0.1,0,0.3-0.2,0.3-0.3C737,174.5,736.2,174.5,735.5,174.4c-0.6-1.5,1.9-3.7-0.4-4.5
			c-1.7-0.7-4.3-1-5.7,0.8c-1.3,1.7-2.2,3.6-4.1,5.1C729.3,177.4,732.3,175.6,735.5,174.4z M736.6,162.9c1,0,1.9-0.1,2.9-0.1
			c4.9-0.1,6.3-3.5,6.8-7.6c0.5-4.1-0.2-7.6-5-8.8c-1.4-0.3-2.7-1-4-1.5c-0.3-1.8,2-2.8,1.4-5.5c-2.9,2.8-5.7-0.5-8.3,0.4
			c-4,1.3-6,0.2-6.1-4.6c-1,2.7-2.4,4.6-5,6c2.9,0.7,6.4-0.4,5.7,3.9c-3.1,0.4-6.7,0.3-6.2,5.1c-2.1,1-2.1,2,0.1,3
			c0,0.6,0,1.2,0,1.9c-2.5,2.3-2.7,4.6,0.2,6.8c4.8,1.4,9.5,2.7,14.6,1.9c1,1.3,1.6,0.7,2-0.5C735.9,163.2,736.2,163.1,736.6,162.9z
			 M730.9,127.4c4.2,0.1,6.9-0.1,9.3-1.5c2.6-1.4,5.2-3.2,4.5-6.6c-0.7-3.4-2.3-6.2-6.3-6.8c-4.3-0.7-8.6-0.9-12.9-0.7
			c-3.9,0.2-6.2,2.1-5.9,6.3c0.1,1.7,0.3,3.5,0.3,5.2c0,1.7,0.7,2.6,2.5,2.8C725.7,126.7,729,127.2,730.9,127.4z M724.7,169.8
			c-0.3-1.4-1.5-1.7-2.5-1.8c-1.1-0.2-5,4.9-4.8,6c0.2,0.9,0.8,1.4,1.7,1.2C722.1,174.6,723.3,172.1,724.7,169.8z M731.6,131
			c2.1,1.7,4.5,0.9,6,2.5c0.7,0.7,1.9,0.7,2.4-0.4c0.5-1.2-0.2-2.3-1.3-2.6C736.5,130,734.3,129.8,731.6,131z M724.2,132.2
			c1.7-0.9,3.2,1.8,5,0.2c0.5-0.4,0.5-1.3-0.1-1.6c-1.9-1.1-3.4,0.6-5.2,0.7C724,131.6,724,131.7,724.2,132.2z M744.7,165
			c-2.2,0.5-2.8,1.5-1.9,3.2C744.4,167.9,744.7,166.8,744.7,165z M751.1,155.1c-0.6-0.7-0.8-1.2-1.1-1.3c-0.2-0.1-0.8,0.4-0.9,0.7
			c-0.2,0.6,0,1.3,0.8,1.2C750.3,155.6,750.7,155.3,751.1,155.1z M715.4,145.4c0.3-0.6,0.7-0.9,0.7-1.3c0-0.7-0.4-1.2-1.1-0.9
			c-0.3,0.1-0.5,0.8-0.4,1.1C714.6,144.7,715,144.9,715.4,145.4z M746.7,143.9c-0.1-0.3-0.1-0.6-0.3-0.7c-0.2-0.1-0.5,0.1-0.7,0.1
			c0.1,0.3,0.2,0.6,0.4,1C746.2,144.1,746.4,144,746.7,143.9z M757.2,149.7c0-0.1,0.1-0.3,0.1-0.4c0,0-0.2-0.1-0.3-0.1
			c0,0.1-0.1,0.3-0.1,0.4C756.8,149.6,757.1,149.6,757.2,149.7z"/>
		<path fill="#23F3FF" d="M587.5,169.2c-0.1,2.2-0.2,4.4-0.3,6.6c-1.4,0.4-1.2,1.5-1.2,2.6c-0.9,1.4-2.3,1.7-3.6,1.4
			c-4.8-1.1-9.6-0.1-14.4-0.1c-2,0-3.1-0.4-3.6-2.8c-1.1-5.6-0.1-11.2-0.5-16.8c-0.4-6.2-0.3-12.3-0.6-18.5
			c-0.2-5.1-2.5-7.7-6.9-8.4c-3.9-0.5-6.7,1.6-8.5,6.2c-2.3,6-1.7,12.2-1.8,18.4c-0.1,5.6-1.2,11.2-0.2,16.9c0.3,1.9-0.2,3.5-3,3.2
			c-6.4-0.6-12.9-1.1-19.3-0.3c-1.9,0.3-2.3-1-2.3-2.6c0.2-18.8,0.5-37.7,0.7-56.5c0-2.3,0.5-3.8,3.7-3.3c4.3,0.6,8.8,0.6,13.2,0.3
			c4-0.3,6,1.1,6.2,5c0.2,3.5,1.5,2.2,2.9,0.8c1.1-0.2,2.3-0.1,3.2-0.5c5.3-2.6,10-6.2,16.8-3.6c1.6,0.6,5-1.4,7.7-0.3
			c0.6,0.2,1.3,0.1,2,0.2c1.2,0.3,2.1,1.1,2.5,2.3c-0.1,1,0.2,1.8,1.3,1.9c2.1,4,4.2,7.9,5,12.4c-1,0.9-0.4,1.3,0.5,1.6
			c0.1,0.6,0.2,1.1,0.3,1.7c-1,1-0.9,1.9,0.4,2.5c0.6,4.1,0.7,8.2-0.1,12.3C585.9,157.6,586.6,163.4,587.5,169.2z M571.9,154.4
			c-0.1,0.1-0.1,0.2-0.2,0.4C571.8,154.6,571.8,154.5,571.9,154.4c0.1-0.1,0.1-0.2,0.2-0.3C572,154.1,572,154.2,571.9,154.4z
			 M576,157.6c-0.1,0.1-0.2,0.3-0.3,0.4c0.1-0.1,0.3-0.2,0.4-0.3c0.3-0.3,0.5-0.5,0.8-0.8c1.4-0.2,2.3-0.8,2.8-2.3
			c-2.1-0.3-2.7,0.7-2.9,2.2C576.5,157.1,576.3,157.3,576,157.6z M570.3,143.7c2.7-0.8,4.7-2.6,6.5-4.6c0.4-0.5,1-1.1,0.2-1.7
			c-0.3-0.2-1.2-0.3-1.5,0C573.5,139.2,570.5,140.2,570.3,143.7c-0.2,0.1-0.3,0.2-0.4,0.3C570,143.9,570.2,143.8,570.3,143.7z
			 M569.7,135.1c-0.2,1.1-0.6,2.5,1,2.7c2.1,0.2,3.6-1.3,4.8-2.6c1-1.1,0.3-2-1.2-2.2c-2-0.3-0.6-1.1-0.3-1.9
			c1.5-2.9,0.2-6.4-2.5-6.1c-2.3,0.3-4-0.6-5.8-1.3c-1.2-0.4-2.5-1.3-3.4-0.1c-1,1.3,0.3,2.6,1,3.6c0.4,0.7,1.5,1,1.8,1.6
			C566,131.4,570.2,131.6,569.7,135.1z M575.8,144.8c-2.9,1.2-2.1,3.8-2.2,6c0,0.7,0.1,1.6,0.9,1.5c0.9,0,1.7-1,1.3-1.7
			c-1-1.6-1.3-2.7,0.7-3.7C577.1,146.7,577.2,145.1,575.8,144.8z M582.3,146c-0.1,0.8,0.5,0.8,1.1,0.9c0.5,0.1,1.2,0,1.3-0.6
			c0.2-0.8-0.5-0.8-1-0.9C583.1,145.3,582.6,145.4,582.3,146z M573.3,160.2c-0.1-0.2-0.2-0.5-0.4-0.6c-0.2,0-0.5,0.1-0.6,0.2
			c-0.2,0.4,0,0.7,0.5,0.7C572.9,160.6,573.1,160.4,573.3,160.2z M578.5,122.7c0.2-0.1,0.5-0.2,0.6-0.3c0.1-0.1-0.1-0.4-0.2-0.6
			c-0.2,0.1-0.5,0.2-0.6,0.4C578.2,122.3,578.4,122.5,578.5,122.7z"/>
		<path fill="#26F4FF" d="M785.4,122.4c0.8-1,1.8-1.5,3-1.6c3.9,0.1,7.4-1.2,10.5-3.5c1.6-0.1,3.2-0.3,4.8-0.4c2.5,1.2,5,1.2,7.6,0
			c0.6,0.1,1.3,0.2,1.9,0.3c0.4,1.7,1.8,1.4,3,1.4c13.3,3.7,16,14.7,18,26.2c0.2,0.9,0.2,1.9,0.3,2.9c0.7,7.9,0.2,8.5-7.4,7.6
			c-3.7-0.5-7.3,0.4-11,0.7c-7.2,0.6-14.3-1.1-21.5-0.7c-4.5,0.3-4.7,0.9-2.3,4.7c4.3,6.6,10.4,8.9,17.8,6.5c1.6-0.5,3-1.3,3.7-2.9
			c1.7-3.7,4.6-3.9,8-3.3c1.3,0.2,2.5,0.5,3.8,0.6c6.9,0.6,7.9,2.5,3.8,8.2c-10.7,14.9-38.9,20.5-52.9-2.5c-5.5-9-6.3-18.7-3.2-28.7
			c3.8-1.4,7.1-3,4.3-7.9c0.6-1.5,1.6-2.8,3-3.7C787.4,126.7,787.4,126.7,785.4,122.4z M805.9,141.5c0,0,0,0.1,0,0.1
			c2.1,0,4.1,0,6.2,0c3.7,0,3.6-1.8,2-4.2c-4.5-6.7-17.7-6.3-22.1,0.6c-1.4,2.2-0.8,2.7,1.5,2.7C797.6,141,801.7,141.3,805.9,141.5z
			 M807.9,120.8c0.3,0.1,0.6,0.4,0.8,0.3c0.2-0.1,0.2-0.5,0.4-0.8c-0.3-0.1-0.6-0.4-0.8-0.3C808,120.2,808,120.6,807.9,120.8z"/>
		<path fill="#26F4FF" d="M509.8,128.6c1.2,12.5,0.1,25.4,0.3,38.3c0,3.1,2.2,7.1-0.1,9c-1.8,1.5-5.7,0.4-8.7,0.6
			c-3.7,0.2-7.4,0.3-11.1,0.8c-2.3,0.3-3.2-0.2-3.2-2.7c0.2-14.6,0.2-29.2,0.3-43.7c0-3.7,0-7.4-0.3-11.1c-0.2-2.2,0.9-3,2.8-3.1
			c4.8-0.4,9.6-0.9,14.4-1c5.1-0.1,5.9,0.9,5.7,6C509.7,123.8,509.8,126,509.8,128.6z"/>
		<path fill="#37FCFF" d="M1010.6,188.1c0.1-0.2,0.3-0.3,0.3-0.5c0-3,2.6-2.1,4.1-2.8c6.5-3.1,12.5-6.7,17.6-11.9
			c2.1-2.1,0.4-3.1-1.2-4c4.8-4.2,8.1-9.5,12.4-13.9c5-5,7.1-11.7,11.5-17.1c1.2-1.4,1.2-4,1.2-6.1c-0.1-7.8,0.3-15.4-2.4-23.2
			c-1.5-4.4-2.8-8.7-5.9-12.3c-1-1.1-0.9-2.6-0.7-4.1c6.7,9.6,10.9,20,11.5,31.8c0.5,9.4-3.1,17.5-7.4,25.3
			c-5,9.1-10.3,18-17.8,25.4c-5.9,5.8-13.1,9.6-20.7,12.8C1012.4,188,1011.5,188,1010.6,188.1z"/>
		<path fill="#23F3FF" d="M512.3,93.2c0,7.4-5.9,13.7-12.7,13.6c-8.1-0.1-15.3-5.9-15.3-12.6c0-7,7.2-14,14.7-14
			C506.5,80.2,512.3,85.9,512.3,93.2z"/>
		<path fill="#26F4FF" d="M801.9,105.3c-5,0-9.9-0.1-14.9,0c-2,0.1-3.9,0-3.4-2.5c0.4-2.2-0.7-5.8,3.1-6c9.7-0.4,19.5-0.6,29.2-0.6
			c2.8,0,6,0.7,5.9,4.7c-0.1,4.1-3,4.3-6.1,4.3C811.2,105.2,806.5,105.2,801.9,105.3C801.9,105.3,801.9,105.3,801.9,105.3z"/>
		<path fill="#37FCFF" d="M281.7,100.6c1.3,1.4,1.9,3.2,2.3,5c0.2,1,0.6,2.2,1.6,2c3.3-0.8,2.6,1.4,2.7,3.2c0.1,2.2,1.1,4.1,2,6
			c1.5,3.1,0.7,4.3-2.7,4.5c-3.8,0.2-3.7,0.2-2.1,3.8c1.1,2.4,1.4,5.4,5,5.8c0.9,0.1,1.4,1.4,1.3,2.3c-0.2,3,1.2,5,3.7,6.2
			c1.7,0.9,1,2,0.7,3.3c-0.5,1.8-1.5,0.9-2.5,0.8c0.7-1.6-0.7-2.3-1.4-3.3c-3.7-4.7-7.2-9.4-9.2-15c-1.4-3.7-0.7-5.1,3.2-5.4
			c2.9-0.2,2.4-1.3,1.3-3C284.5,111.7,282,106.6,281.7,100.6z"/>
		<path fill="#37FCFF" d="M1028.2,113.1c1.2-0.2,1.7,1.3,3,1c1.1-0.2,1.5,1.1,1.1,1.6c-2.6,3,0.3,5.2,1.1,7.4
			c1.4,3.7,0.8,6.9-1.1,9.9c-1.3,2-1.9,4.7-4.7,5.5C1033.3,130.1,1032.1,121.6,1028.2,113.1z"/>
		<path fill="#37FCFF" d="M577.8,117.1c-0.7-0.1-1.4,0-2-0.2c-2.8-1.1-6.2,0.9-7.7,0.3c-6.7-2.6-11.5,0.9-16.8,3.6
			c-0.9,0.5-2.1,0.4-3.2,0.5C555.9,111.6,569.6,112.5,577.8,117.1z"/>
		<path fill="#37FCFF" d="M375,120.5c-1-1.8-0.6-3.6-0.3-5.5c0.2-1.4,1.3-2.5,0.2-4.3c-0.8-1.3,3.6-4.1,6-3.5
			c1.4,0.3,2.8,0.6,4.2,0.5c-1.1,1.5-2.8,2.1-4.5,2.5c-3.5,0.9-5,3-4.9,6.5C375.7,118,375.2,119.3,375,120.5z"/>
		<path fill="#37FCFF" d="M957.4,122.7c-1.4-4.9,0.4-9.4,5.3-12.7C960.9,114.2,959.1,118.5,957.4,122.7z"/>
		<path fill="#37FCFF" d="M1044.8,88.9c-4.3-1-6.4-4.2-8.3-7.8C1039.9,83.2,1042.8,85.6,1044.8,88.9z"/>
		<path fill="#37FCFF" d="M952.6,172.3c2.7-0.6,6.6,2.4,7.9,6C957.3,177.1,954.8,174.8,952.6,172.3z"/>
		<path fill="#37FCFF" d="M587.5,169.2c-0.9-5.8-1.5-11.6,0.3-17.3C587.7,157.6,588.5,163.4,587.5,169.2z"/>
		<path fill="#37FCFF" d="M371.7,135.1c0.3-3,0.5-6,1-9c0.2-1.3,0.4-2.8,1.9-3.5C374.4,127,374.7,131.4,371.7,135.1z"/>
		<path fill="#37FCFF" d="M1036.5,81.1c-2.7-1.8-5.5-3.4-7.8-5.9C1031.8,76.6,1035.1,77.6,1036.5,81.1z"/>
		<path fill="#37FCFF" d="M777.6,130c2.8,4.9-0.5,6.5-4.3,7.9C774.2,134.9,775,132,777.6,130z"/>
		<path fill="#37FCFF" d="M385.1,107.7c3.1-3.9-1.3-3.8-2.8-5.3c0.5,0,0.9-0.1,1.4-0.1c1.5,0,3.3,0,3.8,1.8
			C387.9,105.8,386.8,107,385.1,107.7z"/>
		<path fill="#37FCFF" d="M785.4,122.4c2.1,4.3,2.1,4.3-4.7,4C781.5,124.2,783.2,123,785.4,122.4z"/>
		<path fill="#37FCFF" d="M798.9,117.4c-3.1,2.3-6.6,3.6-10.5,3.5C791.7,119.2,795.1,117.6,798.9,117.4z"/>
		<path fill="#37FCFF" d="M811.3,116.9c-2.5,1.2-5,1.2-7.6,0C806.2,116,808.8,115.8,811.3,116.9z"/>
		<path fill="#37FCFF" d="M1007.4,186.1c1,0.5,1.3,1.5,2,2.3C1007.2,188.9,1007.4,187.4,1007.4,186.1z"/>
		<path fill="#37FCFF" d="M285.8,94.1c-1.2,0.1-2.4,0.1-3.6,0.2C283.3,92.4,284.5,92.8,285.8,94.1z"/>
		<path fill="#37FCFF" d="M1024.1,108.9c0.6,0.6,1,1.4,1.1,2.2C1023.9,110.8,1023.3,110.2,1024.1,108.9z"/>
		<path fill="#37FCFF" d="M587.9,139.5c-1.3-0.6-1.4-1.4-0.4-2.5C587.9,137.8,588.3,138.6,587.9,139.5z"/>
		<path fill="#37FCFF" d="M816.2,118.6c-1.2,0-2.5,0.3-3-1.4C814.5,117.2,815.5,117.6,816.2,118.6z"/>
		<path fill="#37FCFF" d="M586,178.4c0-1-0.2-2.2,1.2-2.6C587.4,177,587,177.8,586,178.4z"/>
		<path fill="#37FCFF" d="M290,95.5c-0.7,0.1-1.3,0-1.7-0.7C289,94.7,289.6,94.8,290,95.5z"/>
		<path fill="#37FCFF" d="M1025.9,73.7c-0.7,0.1-1.3-0.1-1.4-0.9C1025.2,72.8,1025.6,73.1,1025.9,73.7z"/>
		<path fill="#37FCFF" d="M581.6,121.3c-1.1-0.2-1.5-0.9-1.3-1.9C581.1,119.8,581.5,120.4,581.6,121.3z"/>
		<path fill="#37FCFF" d="M587.2,135.4c-1-0.3-1.5-0.7-0.5-1.6C586.8,134.3,587,134.8,587.2,135.4z"/>
		<path fill="#26F4FF" d="M1044,126.2c0.9,0.5,1.5,2,2.7,0.7c1.7-1.9,2-0.3,2.4,1c1.4,4.1-0.8,7.3-3,10.4c-0.6,0.8-1.4,0.9-1.7-0.4
			c-0.2-0.9-0.4-1.7-0.5-2.6c-0.1-0.7,0-1.4-0.7-1.9c-2.3-1.5-2.3-2-0.6-4.5c0.3-0.4,0.5-0.9,0.7-1.3
			C1043.5,127.1,1043.7,126.7,1044,126.2z"/>
		<path fill="#37FCFF" d="M1035.4,87.1c-5.5-2.7-10.3-6.4-15.3-9.9C1025.4,80.2,1031.7,81.6,1035.4,87.1L1035.4,87.1z"/>
		<path fill="#37FCFF" d="M1043.5,109.1c-1.7-5.2-3.1-9.6-4.4-14c-0.2-0.7-0.2-1.6,0.6-2.2c0.2-0.1,0.6-0.2,0.8-0.1
			c0.7,0.6-0.1,1.3-0.1,1.9c0,1.9,1.1,3.4,1.7,5C1043.1,102.6,1044.4,105.2,1043.5,109.1z"/>
		<path fill="#37FCFF" d="M1016,166.3c-1.2-0.1-2-0.4-1.2-1.3c1.5-1.7,3.2-3.3,4.8-4.9c0.7-0.6,1.4-0.3,1.9,0.2
			c0.7,0.6-0.2,1.1-0.5,1.4C1019.2,163.3,1017.8,165.2,1016,166.3z"/>
		<path fill="#37FCFF" d="M1050.5,118.1c-1.3,0.6-3.1-2.7-3.8,0.8c-0.3-1.1-0.7-2.2-1-3.4c3.7,1,3.2-2.2,4.1-4.1
			C1052.8,113.7,1048.6,116,1050.5,118.1z"/>
		<path fill="#37FCFF" d="M1040.9,117.2c1.9,0.1,3.6,0,4.1,2.2c0.2,0.8-0.4,1.5-1.2,1.4C1041.7,120.6,1041.3,119,1040.9,117.2z"/>
		<path fill="#37FCFF" d="M955.1,118.5c0.9,1.6,0.3,2.5-0.7,3.3c-0.4,0.3-0.9,0.2-1-0.2C953.2,120.1,954.3,119.6,955.1,118.5z"/>
		<path fill="#37FCFF" d="M1037.6,105.7c-0.8-1.2-1.2-2-0.7-3.1C1037.7,103.4,1038,104.3,1037.6,105.7z"/>
		<path fill="#26F4FF" d="M1042.8,137.8c-0.3,0.1-0.5,0.3-0.7,0.4c-0.5,0-0.6-0.4-0.5-0.8c0.1-0.2,0.4-0.3,0.6-0.5
			C1042.3,137.1,1042.5,137.3,1042.8,137.8z"/>
		<path fill="#37FCFF" d="M1038.4,88.9c-0.5-0.1-1.2,0.2-1.5-0.6c0-0.1,0.1-0.4,0.2-0.4C1037.9,87.8,1038.2,88.4,1038.4,88.9
			C1038.5,88.9,1038.4,88.9,1038.4,88.9z"/>
		<path fill="#37FCFF" d="M1018.1,76.4c0.1-0.2,0.1-0.4,0.2-0.5c0.1,0,0.4,0.1,0.5,0.2c0,0.1-0.1,0.3-0.2,0.5
			C1018.5,76.5,1018.3,76.4,1018.1,76.4z"/>
		<path fill="#37FCFF" d="M1036.5,100.9c0,0.1-0.1,0.1-0.1,0.2c-0.1-0.1-0.2-0.2-0.2-0.2c0.1-0.1,0.1-0.1,0.2-0.2
			C1036.4,100.8,1036.4,100.9,1036.5,100.9z"/>
		<path fill="#37FCFF" d="M1038.9,108.8c0,0.1-0.1,0.1-0.1,0.2c-0.1-0.1-0.2-0.2-0.2-0.2c0.1-0.1,0.1-0.1,0.2-0.2
			C1038.8,108.7,1038.9,108.7,1038.9,108.8z"/>
		<path fill="#37FCFF" d="M1038.2,106.8c0,0.1,0.1,0.1,0.1,0.2c-0.1,0-0.2,0-0.3,0.1c0-0.1,0-0.2,0.1-0.2
			C1038.1,106.8,1038.1,106.8,1038.2,106.8z"/>
		<path fill="#37FCFF" d="M952.1,123.2c-0.1,0-0.1-0.1-0.2-0.1c0.1-0.1,0.2-0.2,0.2-0.2c0.1,0.1,0.1,0.1,0.2,0.2
			C952.2,123.1,952.1,123.1,952.1,123.2z"/>
		<path fill="#37FCFF" d="M1035.4,87.1c0.1,0.1,0.2,0.2,0.2,0.3C1035.6,87.3,1035.5,87.2,1035.4,87.1
			C1035.4,87.1,1035.4,87.1,1035.4,87.1z"/>
		<path fill="#37FCFF" d="M1039,89.5c-0.2-0.2-0.4-0.4-0.6-0.6c0,0,0,0,0,0C1038.7,89.1,1038.9,89.3,1039,89.5L1039,89.5z"/>
		<path fill="#37FCFF" d="M1039.1,89.5c0.1,0,0.2,0.1,0.3,0.1C1039.2,89.6,1039.1,89.5,1039.1,89.5
			C1039,89.5,1039.1,89.5,1039.1,89.5z"/>
		<path fill="#37FCFF" d="M737.2,145c-4.1-0.3-8.3-0.6-12.4,0.2c0.8-4.3-2.8-3.2-5.7-3.9c2.7-1.5,4-3.3,5-6c0,4.8,2,5.9,6.1,4.6
			c2.7-0.9,5.4,2.4,8.3-0.4C739.2,142.2,736.9,143.2,737.2,145z"/>
		<path fill="#37FCFF" d="M735.5,174.4c-3.1,1.3-6.2,3-10.2,1.4c1.9-1.4,2.8-3.4,4.1-5.1c1.5-1.9,4-1.5,5.7-0.8
			C737.3,170.7,734.8,172.9,735.5,174.4L735.5,174.4z"/>
		<path fill="#37FCFF" d="M724.7,169.8c-1.4,2.3-2.6,4.8-5.6,5.3c-0.9,0.2-1.5-0.3-1.7-1.2c-0.2-1.1,3.8-6.2,4.8-6
			C723.2,168.1,724.4,168.4,724.7,169.8z"/>
		<path fill="#37FCFF" d="M731.6,131c2.7-1.1,4.9-1,7-0.4c1.2,0.3,1.9,1.4,1.3,2.6c-0.5,1.1-1.7,1.1-2.4,0.4
			C736.1,131.9,733.7,132.7,731.6,131z"/>
		<path fill="#37FCFF" d="M718.8,155.1c0.1,2.3,0.1,4.5,0.2,6.8C716.1,159.7,716.3,157.5,718.8,155.1z"/>
		<path fill="#37FCFF" d="M724.2,132.2c-0.2-0.5-0.2-0.6-0.2-0.7c1.8-0.2,3.3-1.8,5.2-0.7c0.6,0.3,0.6,1.2,0.1,1.6
			C727.3,134,725.9,131.3,724.2,132.2z"/>
		<path fill="#37FCFF" d="M744.7,165c0,1.8-0.3,3-1.9,3.2C741.9,166.4,742.5,165.5,744.7,165z"/>
		<path fill="#37FCFF" d="M718.7,150.3c0,1,0.1,2,0.1,3C716.6,152.4,716.6,151.4,718.7,150.3z"/>
		<path fill="#37FCFF" d="M751.1,155.1c-0.4,0.2-0.8,0.6-1.2,0.6c-0.8,0-1-0.6-0.8-1.2c0.1-0.3,0.7-0.7,0.9-0.7
			C750.3,153.8,750.5,154.3,751.1,155.1z"/>
		<path fill="#26F4FF" d="M715.4,145.4c-0.4-0.5-0.8-0.7-0.8-1c0-0.4,0.2-1,0.4-1.1c0.7-0.3,1.1,0.3,1.1,0.9
			C716.1,144.5,715.7,144.8,715.4,145.4z"/>
		<path fill="#37FCFF" d="M736.6,162.9c0.9-1.3,1.8-2.9,2.9-0.1C738.5,162.8,737.5,162.9,736.6,162.9z"/>
		<path fill="#37FCFF" d="M733.5,163.8c0.7-0.2,1.3-0.3,2-0.5C735.1,164.6,734.5,165.1,733.5,163.8z"/>
		<path fill="#37FCFF" d="M735.5,174.4c0.7,0.1,1.6,0.1,1.5,1.2c0,0.1-0.2,0.3-0.3,0.3C735.5,176,735.6,175.1,735.5,174.4
			L735.5,174.4z"/>
		<path fill="#37FCFF" d="M754.7,146.5c-0.7-0.1-1.5-0.1-1.5-1.1c0-0.1,0.2-0.3,0.3-0.3C754.6,145,754.5,145.8,754.7,146.5
			L754.7,146.5z"/>
		<path fill="#37FCFF" d="M746.7,143.9c-0.2,0.1-0.5,0.2-0.7,0.4c-0.1-0.3-0.2-0.6-0.4-1c0.3-0.1,0.6-0.2,0.7-0.1
			C746.5,143.2,746.6,143.6,746.7,143.9z"/>
		<path fill="#37FCFF" d="M757.2,149.7c-0.1,0-0.3-0.1-0.3-0.1c0-0.1,0.1-0.3,0.1-0.4c0.1,0,0.3,0.1,0.3,0.1
			C757.3,149.4,757.2,149.5,757.2,149.7z"/>
		<path fill="#37FCFF" d="M754.7,146.5c0.1,0.1,0.3,0.2,0.4,0.2C754.9,146.7,754.8,146.6,754.7,146.5L754.7,146.5z"/>
		<path fill="#37FCFF" d="M569.7,135.1c0.5-3.5-3.7-3.7-4.5-6.2c-0.2-0.7-1.3-1-1.8-1.6c-0.7-1.1-2-2.3-1-3.6
			c0.9-1.2,2.2-0.3,3.4,0.1c1.9,0.7,3.6,1.6,5.8,1.3c2.7-0.3,4,3.1,2.5,6.1c-0.4,0.7-1.8,1.5,0.3,1.9c1.5,0.2,2.1,1.2,1.2,2.2
			c-1.2,1.4-2.7,2.9-4.8,2.6C569.2,137.5,569.5,136.2,569.7,135.1z"/>
		<path fill="#37FCFF" d="M570.2,143.6c0.3-3.4,3.3-4.4,5.4-6.2c0.3-0.3,1.1-0.2,1.5,0c0.8,0.6,0.2,1.2-0.2,1.7
			C575,141.1,573,142.9,570.2,143.6L570.2,143.6z"/>
		<path fill="#37FCFF" d="M575.8,144.8c1.4,0.3,1.3,1.9,0.8,2.2c-2,1.1-1.7,2.1-0.7,3.7c0.4,0.7-0.4,1.6-1.3,1.7
			c-0.8,0-1-0.8-0.9-1.5C573.7,148.6,572.9,146,575.8,144.8z"/>
		<path fill="#37FCFF" d="M582.3,146c0.3-0.6,0.8-0.7,1.3-0.6c0.5,0.1,1.2,0.1,1,0.9c-0.1,0.6-0.8,0.7-1.3,0.6
			C582.8,146.8,582.2,146.8,582.3,146z"/>
		<path fill="#37FCFF" d="M576.8,156.8c0.3-1.4,0.8-2.5,2.9-2.2c-0.5,1.5-1.4,2.1-2.8,2.3L576.8,156.8z"/>
		<path fill="#37FCFF" d="M573.3,160.2c-0.2,0.2-0.4,0.4-0.5,0.4c-0.5,0-0.6-0.3-0.5-0.7c0.1-0.2,0.4-0.3,0.6-0.2
			C573.1,159.7,573.2,160,573.3,160.2z"/>
		<path fill="#37FCFF" d="M578.5,122.7c-0.1-0.2-0.2-0.5-0.2-0.6c0.1-0.2,0.4-0.2,0.6-0.4c0.1,0.2,0.2,0.5,0.2,0.6
			C579,122.6,578.7,122.6,578.5,122.7z"/>
		<path fill="#37FCFF" d="M576.1,157.7c-0.1,0.1-0.3,0.2-0.4,0.3c0.1-0.1,0.2-0.3,0.3-0.4C576,157.6,576.1,157.7,576.1,157.7z"/>
		<path fill="#37FCFF" d="M576.9,156.9c-0.3,0.3-0.5,0.5-0.8,0.8c0,0-0.1-0.1-0.1-0.1c0.3-0.3,0.5-0.5,0.8-0.8
			C576.8,156.8,576.9,156.9,576.9,156.9z"/>
		<path fill="#37FCFF" d="M571.9,154.4c-0.1,0.1-0.1,0.2-0.2,0.3C571.8,154.6,571.8,154.5,571.9,154.4L571.9,154.4z"/>
		<path fill="#37FCFF" d="M571.9,154.4c0.1-0.1,0.1-0.2,0.2-0.3C572,154.1,572,154.2,571.9,154.4
			C571.9,154.4,571.9,154.4,571.9,154.4z"/>
		<path fill="#37FCFF" d="M570.3,143.7c-0.1,0.1-0.3,0.2-0.4,0.3C570,143.8,570.1,143.7,570.3,143.7
			C570.2,143.6,570.3,143.7,570.3,143.7z"/>
		<path fill="#37FCFF" d="M807.9,120.8c0.1-0.3,0.2-0.7,0.4-0.8c0.2-0.1,0.5,0.2,0.8,0.3c-0.1,0.3-0.2,0.7-0.4,0.8
			C808.5,121.2,808.1,121,807.9,120.8z"/>
	</g>
	<g id="_x36_ztdh9.tif">
		<g>
			<polygon fill="#1FF2F7" points="76.6,104 72.8,101.8 71.1,100.9 71.1,99.1 71.6,97.6 72.9,97.9 72.9,97.9 72.2,99.5 72.3,100.4 
				75.4,101.6 76.6,104 			"/>
			<path fill="#00E3EA" d="M76.6,104l-1.1-2.4l-3.1-1.2l-0.1-0.9l0.7-1.6l0.1-0.1l-0.1,0.1l-1.3-0.3l0.2-2.4l0.4-0.2l0.5-1.8l0.4-2
				l4.3-1.3l2.8,0l3.6-0.5l8.9-0.2l15.7,0.1l1.2-0.2l3.2,1.9l4.3,15.4l6.1,23.3l2.6,11.7l0.7-0.5l3.4-10.5l3.4-12.8l5.4-19.2
				l1.8-7.3l0.6-1l1.6-0.8l5.6-0.4l2.7,0l1.2,0l8.6,0.1l2-0.4l0.6,0l12.7,0l0.6,0l4.3,4.5l0.1,7.1l-0.9,1.2l-2.9,1.6l-1.4,5.2
				l-0.1,15.6l-0.8,13.7l0,18.9l4.3,5l2.1,2.8l0,7.2l-2.6,2.8l-21.7,0.7l-10.3,0.1l-2.9-3.3l-0.2-4.5l0.2-5.4l1.1-0.8l4.5-0.5
				l1.4-1.4l0-20.6l-0.1-29.8l-0.2-2.2l-1.1,2.3l-4.2,15.1l-5.6,21.4l-2.5,9.3l-4.3,16.1l-4.2,3.5l-12.2-0.2l-1.8-1.5l0,0l-0.3-1.5
				l-1.7-7l-2.6-7.6l-1.7-6.9l-2.3-7l-2.7-11.7l-0.6-3.1l-0.5-1.5l-2-7.3l-2.6-7.8l-0.4-0.7l0,0.7l0.1,1.2l0,1.5l0,0.8l-0.4,0.6
				l-1.1,0.5l0.8,0.4l0.3,1.5l-0.2,4.5l0.1,0l-0.3,0.6l-1.3,2l0.2,0.9l0.6,1.7l-0.5,1.5l1,3l0.4,0.3l0,0.3l-0.4,0.9l-0.9,1.4
				l1.1,0.7l0,1.2l-1.2,0.8l1.2,0.4l0,0.9l-1.1,0.7l0.8,0.8l0,1.2l-1.2,1.8l1.2,0.9l0.3,0.6l-0.1,1.2l-1,1.5l0.1,3.6l-0.7,4.3
				l1.3,1.9l0,0.6l-1.2,0.8l-0.2,1.8l1.4,0.1l2.7,0.4l1.4,2.3l1.3-1.5l0.6,1.8l0,2.4l0,2.1l0,3l-3.6,3.3l-25.9,0.2l-1.1-1l-0.2-9.7
				l1.9-3l4.1-2.3l2.1-3.3l0.6-0.9l0.6-0.9l-0.3-0.9l-0.6-0.3l0-0.9l0.9-1.5l-0.9-1.2l-2,0l0-0.9l0.5-2.1l-0.2-1.2l1-3l-0.3-1.9
				l-0.8-1.2l-0.3-0.6l0-0.9l0.7-2.9l0-1.1l0.7-1.4l-1.1-0.5l0.8-3.2l0.6-1l-2.1-1.1l0-1.2l1.4-0.7l0-0.7l-0.6-2.5l0.5-0.2l-0.1-0.2
				l-0.4,0.4l-0.9-0.6l0.1-0.6l0.4-0.3l-0.4-0.3l-0.4-0.9l0-1.5l0.1-1.5l1.7-1.5l0.1,0l0.1,0l0,0.9l-0.2,0.7l0.5-0.1l4.8-4.3
				l-2.6,0.4l-0.9-0.3l-0.9,0.9l-1.3-0.3l-0.5-0.8l0.6-0.9l2.2-2l-1.2-1.1l-0.5-0.4l-0.1,0.4l-0.4,1.9l-1.4-1L76.6,104L76.6,104z
				 M165.7,100.6l-0.3,0.3l-0.1,0.1l0,0.1l0.1-0.1L165.7,100.6l0.3-0.3l0.3-0.3l0.1-0.1l-0.1,0.1l-0.3,0.3L165.7,100.6L165.7,100.6z
				 M173.5,100.6l-0.3,0.3l-0.1,0.1l0.1-0.1L173.5,100.6l0.1-0.1L173.5,100.6L173.5,100.6z M130.8,143.1l0.3-0.3l0.3-0.3l0.3-0.3
				l0.1-0.1l-0.1,0.1l-0.3,0.3l-0.3,0.3L130.8,143.1l-0.3,0.3l-1.5,1.9l1.6-1.8L130.8,143.1L130.8,143.1z M99,103.1l0.3-0.3l0.1-0.1
				l-0.1,0.1L99,103.1l-0.1,0.1L99,103.1L99,103.1z M158.4,124.6l-0.3,0.3L158,125l0.1-0.1L158.4,124.6l0.1-0.1L158.4,124.6
				L158.4,124.6z M161.4,134.3l-0.1,0.1L161.4,134.3l0.3-0.3l0.3-0.3l0.2-0.3l-0.1-0.1l-0.1,0.4l-0.3,0.3L161.4,134.3L161.4,134.3z
				 M158.1,136.7l0.1-0.1L158.1,136.7l-0.1,0.1L158.1,136.7L158.1,136.7z M167.5,101.5l-0.3,0.3l-0.3,0.3l-0.8,0.5l0.3,0.3l0.5-0.8
				l0.3-0.3L167.5,101.5l0.1-0.1L167.5,101.5L167.5,101.5z M162.3,139.4l0.1-0.1L162.3,139.4l-0.1,0.1L162.3,139.4L162.3,139.4z
				 M141.7,113.1l0.3-0.3l0.6-0.6l0.3-0.3l0.1-0.1l-0.1,0.1l-0.3,0.3l-0.6,0.6L141.7,113.1l-0.1,0.1L141.7,113.1L141.7,113.1z
				 M158.7,110.9l0.3-0.3l0.3-0.3l0.1-0.1l-0.1,0.1l-0.3,0.3L158.7,110.9l-0.1,0.1L158.7,110.9L158.7,110.9z M165,107.3l-0.1,0.1
				L165,107.3l0.3-0.3l0.4-0.3l-0.2-0.2l-0.3,0.4L165,107.3L165,107.3z M163.2,105.8l-0.1,0.1L163.2,105.8l0.1-0.1L163.2,105.8
				L163.2,105.8z M166.9,109.4l0.3-0.3l0.2-0.3l-0.1-0.1l-0.1,0.4L166.9,109.4l-0.1,0.1L166.9,109.4L166.9,109.4z M172.3,118.2
				l0.1-0.1L172.3,118.2l-0.3,0.3l-1.3,1.8l1.3-1.8L172.3,118.2L172.3,118.2z M125,159.1l-0.1,0.1L125,159.1l0.1-0.1L125,159.1
				L125,159.1z M124.1,160.3l-0.1,0.1L124.1,160.3l0.1-0.1L124.1,160.3L124.1,160.3z M80.8,99.1l0.3-0.3l0.3,0l0.7-1.8l-1,1.5l0,0.3
				L80.8,99.1l-0.3,0.3l-1.1,1.8l1.2-1.7L80.8,99.1L80.8,99.1z M155.6,160.6l-0.3,0.3l-0.1,0.2l0.1-0.1L155.6,160.6l0.1-0.1
				L155.6,160.6L155.6,160.6z M140.8,113.7l-0.1,0.1L140.8,113.7l0.1-0.1L140.8,113.7L140.8,113.7z M160.2,153.4l-0.2,0.3l0.1,0.1
				L160.2,153.4l0.3-0.3l2.4-2.7l0.2-0.3l-0.1-0.1l-0.1,0.4l-2.4,2.7L160.2,153.4L160.2,153.4z M86.3,135.2l0.3-0.6l0.5-0.6
				l-0.1-0.1l-0.4,0.7L86.3,135.2l-0.1,0.1L86.3,135.2L86.3,135.2z M85.3,136.7l0.3-0.6l0.1-0.1l-0.1,0.1L85.3,136.7l-0.1,0.1
				L85.3,136.7L85.3,136.7z M112,137l-0.3,0.6l-0.6,0.5l0.2,0.2l0.4-0.7L112,137l0.1-0.1L112,137L112,137z M86.2,112.5l0.3-0.6
				l0.2,0l0.2,0l-0.6,2.3l3.4-4.3l-0.6-0.4l-0.4-0.5l-0.5,1.1l0,0l-0.9,1.2l0,0l-0.6,0.6L86.2,112.5l-0.1,0.1L86.2,112.5L86.2,112.5
				z M87.2,162.2l0.3-0.6l0.5-0.4l-0.1-0.1l-0.4,0.5L87.2,162.2l-0.1,0.1L87.2,162.2L87.2,162.2z M160.8,144.6l0.3-0.6l0.6-0.6
				l0.3-0.6l0.6-0.6l0.3-0.6l0.6-0.6l0.7-1.2l-0.8,1.1l-0.6,0.6l-0.3,0.6l-0.6,0.6l-0.3,0.6l-0.6,0.6L160.8,144.6l-0.1,0.1
				L160.8,144.6L160.8,144.6z M162,107.3l-0.5,0.4l0.1,0.1L162,107.3l0.1-0.1L162,107.3L162,107.3z M166.6,136.4l0.5-0.4l-0.1-0.1
				L166.6,136.4l-0.3,0.3l-1.6,2.6l1.6-2.6L166.6,136.4L166.6,136.4z M161.4,140.7l0.5-0.4l-0.1-0.1L161.4,140.7l-0.3,0.3l-5.4,7.9
				l4.3-5.3l1-2.6L161.4,140.7L161.4,140.7z M171.4,157l-0.5,0.4l0.1,0.1L171.4,157l0.1-0.1L171.4,157L171.4,157z M156.6,126.4
				l-0.5,0.5l0.3,0.2L156.6,126.4l0.5-0.4l-0.1-0.1L156.6,126.4L156.6,126.4z M86.6,137.3l0.6-1.2l0.9-1.5l0.9-1.5l1-1.9l-1,1.9
				l-0.9,1.5l-0.9,1.5L86.6,137.3l-0.1,0.1l0.1,0.1L86.6,137.3L86.6,137.3z M159.3,157.3l0.8-0.5l-0.3-0.3L159.3,157.3l-0.2,0.3
				l0.1,0.1L159.3,157.3L159.3,157.3z M164.7,99.7l-0.8,0.5l0.3,0.3L164.7,99.7l0.5-0.4l-0.1-0.1L164.7,99.7L164.7,99.7z M115,147
				l0.7-1.1L115,147l-0.1,0.1L115,147L115,147z M153.8,162.8l0.9-0.9l0.1-0.2l-0.2,0.1L153.8,162.8l-0.1,0l0,0.1L153.8,162.8
				L153.8,162.8z M132.6,143.1l0.8-0.5l-0.3-0.3L132.6,143.1l-0.1,0.1L132.6,143.1L132.6,143.1z M115,151l0.9-1.2l0.3,0l1.5-0.1
				l-0.6-1.1l-0.9-0.3l1.1-0.7l0.7-0.5l-0.8-1.2l-0.7,0.3l-0.9,1.4l0.6,0.8l-0.4,1.5L115,151l-0.1,0.1L115,151L115,151z
				 M117.5,141.8l-0.8,1.2L117.5,141.8l0.1-0.1L117.5,141.8L117.5,141.8z M123.2,167.3l-1.1,1.1L123.2,167.3l0.1-0.1L123.2,167.3
				L123.2,167.3z M141.1,123.4l-1.1,1.2L141.1,123.4l0.1-0.1L141.1,123.4L141.1,123.4z M163.2,103.4l1.1-1.1L163.2,103.4l-0.1,0.1
				L163.2,103.4L163.2,103.4z M155.7,166.7l1.2-0.6l-0.9,2.6l0,0.6l0.7,0l2-3.6l-0.1-1l-1.7,0.4L155.7,166.7l-0.9,1.2l-1.7,1.2
				l1.7-1.1L155.7,166.7L155.7,166.7z M125.3,145.5l-1.2,1.5l-2.2,2.5l-4.7,4.2l-1.5,1.8l0.4,0.5l3.1-1.9l6.2-6.6l0.6-0.7l-1-0.3
				L125.3,145.5l0.5-0.4l-0.1-0.1L125.3,145.5L125.3,145.5z M160.2,134.3l-1.1,1.1L160.2,134.3l0.1-0.1L160.2,134.3L160.2,134.3z
				 M115,129.1l-1.2,1.5L115,129.1l0.1-0.1L115,129.1L115,129.1z M94.1,96.4l0.4-0.2l0.5-0.9L94.5,95l-0.4,0.9L94.1,96.4l-0.3,0.3
				l-2.2,1.9l2.3-1.9L94.1,96.4L94.1,96.4z M155.1,138l1.2-2l-1.4,1.9l-0.3,0.4l-2.2,4.3l1.6-1.8l0.8-0.7l1.4-1.5l0.8-0.5l-0.3-0.3
				l-0.5,0.8l-1.2,0.8l-0.3-1L155.1,138L155.1,138z M86.2,103.1l-2,1.3l0.2,0.4l1.7-1.3L86.2,103.1l0.1-0.1L86.2,103.1L86.2,103.1z
				 M79.6,96.7l2-1.5l-0.1-0.8l-0.6,0.3L79.6,96.7L78.9,97l-0.1,1.3l0.4,0.2l0.2-1L79.6,96.7L79.6,96.7z M103.2,112.1l-2,2.6l-0.1,1
				l0.5,2.4l0.9,0.3l0.9-1l0.5-4.2l-0.4-0.1l0-0.9l1-0.9l0.3-0.9l-0.5-0.3l-0.8,0.6L103.2,112.1L103.2,112.1z M154.7,95.5l1.1-1.3
				l-2.8,0.5l-1,1.7l-0.4,1.2l1.2-0.1L154.7,95.5L154.7,95.5z M162.9,117.3l1.2-1.2l0-0.6l1.7-1.9l-1.1,0.5l-0.5,0l0-0.4l2.2-2.3
				l0.9-0.6l-0.5-0.5l-1.1,0.3l-2.1,2.6l-0.8,2.2l-2,3.3L162.9,117.3L162.9,117.3z M89.3,158.2l0.8-3.1l-2.5,3.6l0.8,0.7l0.1,1.2
				l1.3-1.8L89.3,158.2L89.3,158.2z M123.5,152.5l-1.2,0.2l-1.6,3.7l1.6-1.7l0.3-0.3l0.3-0.6l1.1-0.9L123.5,152.5L123.5,152.5z
				 M162.3,99.7l-1.6,1.1l-0.8,1.6l1.7,0.3l0.7-1.5L162.3,99.7l1.7-1.5l-0.3-0.2l-1.4,1.6L162.3,99.7L162.3,99.7z M112.4,132.3
				l0.5,0.5l0.3-0.3l-0.4-0.5l1.5,1.4l-0.5,0.8l0,0.8l0.7,0l2-3.1l-0.7-1.3l-1.1,0.6l-0.8,1.1l-0.6,0.8L112.4,132.3L112.4,132.3z
				 M166.9,166.7l2.3-3.1l-2.9,2.8l-3.4,2.9l0,1.1l1.3,0L166.9,166.7L166.9,166.7z M86.9,141.8l-1.7,2.4l-0.2,0.4l-0.1,1l1.5-0.4
				l2.8-5l-0.1-0.6l-1.2-0.3L86.9,141.8L86.9,141.8z M134.1,132.8l-1.1-1.2l-2.1,2.4l-0.4,1.5l-0.8,1.7l3.5-2.6l0.3-0.3l0.3-0.3
				l2.3-2.7L134.1,132.8L134.1,132.8z M103.2,120.9l-0.1,0.9l-0.3,1.1l1-0.4l0.6-0.2l-0.1,0.8l-1.2,2.5l0.6,0.9l0.8-0.7l1.1-2.6
				l-0.1-1.8l0.1-0.9l-0.7-1.5l-0.8,0.7L103.2,120.9L103.2,120.9z M120.5,165.2l0.2,0.9l0.7-0.8L120.5,165.2l-0.2-1l-2.8,1.1
				l-1.3,0.8l-1.4-0.6l0.3,1.6l0,0.5l0.5,1l1.2-0.3l3.3-2.8L120.5,165.2L120.5,165.2z M93.1,100.3l-5.2,3.4l-1.1,0.8l-0.2,0.7
				l0.6,0.2l2.3-1.4L93.1,100.3L93.1,100.3z M168.5,149l-0.5,0.3l-3.3,4.9l-0.3,0.8l0.9-0.2l3.3-4.6L168.5,149L168.5,149z M105,97.6
				l3.9,1l0.6-0.8l0.1-3L105,97.6L105,97.6z M145.7,167.6l0.6-0.5l3.1-2.8l0.6-1l-1.4,0.1l-3,2.9L145.7,167.6L145.7,167.6z
				 M167.4,170.3l1.3-0.5l1.5-1.8l0.3-0.8l-1-0.1l-2.8,2.5L167.4,170.3L167.4,170.3z M91.4,145.3l-0.9-1.7l-1.2,1.7l1.3,1.1
				L91.4,145.3L91.4,145.3z M169.1,145.7l-3.6,3.6l0,0.8l0.7-0.2L169.1,145.7L169.1,145.7z M110.9,142l2.8-2.9l0.2-1l-1,0.4
				L110.9,142L110.9,142z M93.1,94.8l-1-0.4l-3.4,4.1L93.1,94.8L93.1,94.8z M167.3,126.6l-3.6,4.9L167.3,126.6L167.3,126.6z
				 M114.1,160.9l-0.3,0.6l0.5,2.5l0.6-0.2l-0.3-2.4L114.1,160.9L114.1,160.9z M129.7,152.7l-2.1,3.4L129.7,152.7L129.7,152.7z
				 M173,152.7l-1.2,3l0.6,0.7l0.8-0.7L173,152.7L173,152.7z M109.8,140.2l-1.8,2.1L109.8,140.2L109.8,140.2z M173.3,157.3l0.4,3.1
				l0.7,0.5l0.1-0.7L173.3,157.3L173.3,157.3z M113.4,155.9l-1.1,1.2l0.3,0.7l1.6-1.2L113.4,155.9L113.4,155.9z M141.5,129l-2.9,2.8
				L141.5,129L141.5,129z M179.6,172l-0.3-4.7L179.6,172L179.6,172z M77.4,95.7l2-1.9l-0.2-0.3l-1,0.6l-1,1.4L77.4,95.7L77.4,95.7z
				 M94.8,110.3l1.7-2.1l-0.1-0.8l-0.7,0.4L94.8,110.3L94.8,110.3z M102.9,111.3l-2.6,1.1l0,0.7l0.6,0L102.9,111.3L102.9,111.3z
				 M137.1,123.7l-1.7,2l0.4,0.3l1.6-2L137.1,123.7L137.1,123.7z M112,154.4l-0.5-1.1l-0.4,0.9l0.5,1.2L112,154.4L112,154.4z
				 M160.9,168.8l2-1.3l0.1-0.6l-0.7,0.1L160.9,168.8L160.9,168.8z M111.4,118.8l-0.7,0.3l-0.8,1.5l0.3,0.3l0.9-1.2L111.4,118.8
				L111.4,118.8z M142.2,108.6l1.8-1.3l-0.2-0.3L142.2,108.6L142.2,108.6z M139.2,129.3l1.7-1.9L139.2,129.3L139.2,129.3z
				 M87.9,90.6l-2.4,0.2L87.9,90.6L87.9,90.6z M155.4,112.7l1-0.8l-0.6-0.4l-0.9,0.8L155.4,112.7L155.4,112.7z M168.6,133.5
				l-1.3,2.1L168.6,133.5L168.6,133.5z M161,165.4l-0.4-0.5l-0.9,0.6l0.5,0.6L161,165.4L161,165.4z M96,112.3l-1.5,1.9L96,112.3
				L96,112.3z M88.3,171.4l1.5-1.7L88.3,171.4L88.3,171.4z M82.2,141.4l0.9-1.4l-0.4-0.2L82.2,141.4L82.2,141.4z M173.4,121.3
				l-0.7,1.5l0.5,0.1L173.4,121.3L173.4,121.3z M163.1,90.3l1.6,0.3L163.1,90.3L163.1,90.3z M170.7,161.4l-0.6,1.7L170.7,161.4
				L170.7,161.4z M171.1,105.1l1.1-1.3L171.1,105.1L171.1,105.1z M107.2,106.5l-0.8,1.8L107.2,106.5L107.2,106.5z M92.3,167
				l-1.4,1.6L92.3,167L92.3,167z M104.7,96.3l-0.9,1.6L104.7,96.3L104.7,96.3z M162.9,103.9l-1.1,1.4L162.9,103.9L162.9,103.9z
				 M173.8,110.8l-0.5-0.4l-0.5,0.4l0.5,0.4L173.8,110.8L173.8,110.8z M170.5,143.7l-1,1.4L170.5,143.7L170.5,143.7z M174.3,99.9
				l1-1L174.3,99.9L174.3,99.9z M163.9,105.2l1-1.1L163.9,105.2L163.9,105.2z M163.1,91.9l-0.5-0.3l-0.4,0.3l0.5,0.5L163.1,91.9
				L163.1,91.9z M173.2,134.7l0.1-1.3L173.2,134.7L173.2,134.7z M126.8,156.6l-0.6,1.3L126.8,156.6L126.8,156.6z M144.2,90.6
				l1.3,0.2L144.2,90.6L144.2,90.6z M138,132.9l-0.4-0.4l-0.3,0.4l0.4,0.3L138,132.9L138,132.9z M107.4,100l-1.2-0.2L107.4,100
				L107.4,100z M98.2,108l-0.4-0.2l-0.3,0.4l0.4,0.3L98.2,108L98.2,108z M108.3,117.2l-0.7,0.8l0.3,0.2L108.3,117.2L108.3,117.2z
				 M90.3,106.7l-0.5,1.2L90.3,106.7L90.3,106.7z M85.3,109.9l0.2-0.4l-0.3-0.3l-0.4,0.4L85.3,109.9L85.3,109.9z M92.8,165.8
				l-0.3,0.5l0.4,0.2l0.3-0.4L92.8,165.8L92.8,165.8z M89,114.9l-0.4-0.2l-0.4,0.4l0.4,0.2L89,114.9L89,114.9z M99.6,101.8l0.4,0.2
				l0.4-0.4l-0.4-0.2L99.6,101.8L99.6,101.8z M87.2,116.4l0.4,0.2l0.4-0.4l-0.4-0.2L87.2,116.4L87.2,116.4z M101.1,100l0.4,0.2
				l0.4-0.4l-0.4-0.2L101.1,100L101.1,100z M172.3,124.3l0.4,0.2l0.4-0.4l-0.4-0.2L172.3,124.3L172.3,124.3z M169.9,121.5l-0.4-0.2
				l-0.4,0.4l0.4,0.2L169.9,121.5L169.9,121.5z M110.2,139.7l0.4-0.4l-0.2-0.4l-0.4,0.4L110.2,139.7L110.2,139.7z M153.2,123.4
				l-0.5,0.4l0.2,0.4l0.4-0.4L153.2,123.4L153.2,123.4z M154.8,134.3l-0.3,0.3l0.3,0.3l0.3-0.3L154.8,134.3L154.8,134.3z
				 M90.6,108.6l-0.2-0.3l-0.3,0.4l0.2,0.2L90.6,108.6L90.6,108.6z M155,122.5l-0.3-0.3l-0.4,0.1l0.3,0.3L155,122.5L155,122.5z
				 M173.4,131.5l-0.1,0.9L173.4,131.5L173.4,131.5z M145.8,170.4l-0.1-0.2l-0.2,0.1l0.1,0.3L145.8,170.4L145.8,170.4z M159.2,136.8
				l-0.1,0.3l0.2,0.1l0.1-0.2L159.2,136.8L159.2,136.8z M89.2,137.8l-0.2-0.1l-0.1,0.2l0.2,0.1L89.2,137.8L89.2,137.8z M143.4,90.7
				l-0.1-0.2l-0.2,0.1l0.1,0.2L143.4,90.7L143.4,90.7z M158.9,163.2l-0.1-0.2l-0.3,0.1l0.1,0.2L158.9,163.2L158.9,163.2z M161,155.4
				l-0.2-0.1l-0.1,0.2l0.2,0.1L161,155.4L161,155.4z M128.5,152.7l0.1-0.2l-0.2-0.1l-0.1,0.2L128.5,152.7L128.5,152.7z M124.6,151.9
				l-0.1-0.2l-0.2,0.1l0.2,0.3L124.6,151.9L124.6,151.9z M125,151.1l0.2-0.1l-0.1-0.3l-0.2,0.1L125,151.1L125,151.1z M109.5,121.8
				l-0.2-0.1l-0.1,0.2l0.2,0.1L109.5,121.8L109.5,121.8z M108.6,119.3l-0.2-0.1l-0.1,0.2l0.2,0.1L108.6,119.3L108.6,119.3z
				 M84.3,115.9l-0.1,0.2l0.2,0.1l0.1-0.2L84.3,115.9L84.3,115.9z M113.7,131.2l-0.2-0.1l-0.1,0.2l0.2,0.1L113.7,131.2L113.7,131.2z
				 M112.8,133.8l-0.1,0.3l0.2,0.1l0.1-0.2L112.8,133.8L112.8,133.8z M160.9,135.1l-0.2-0.1l-0.1,0.2l0.2,0.1L160.9,135.1
				L160.9,135.1z M131.5,144.2l0,0.1l0.2,0L131.5,144.2L131.5,144.2L131.5,144.2z M146.7,169l0,0.1l0.1,0l0-0.1L146.7,169L146.7,169
				z M167.9,108.1l-0.2,0l0.1,0.1L167.9,108.1L167.9,108.1z M145.5,171.5L145.5,171.5l-0.1,0.1l0.2,0L145.5,171.5L145.5,171.5z"/>
			<polygon fill="#34F8FE" points="83.9,89.4 80.2,89.9 77.5,89.9 73.1,91.2 72.7,93.2 72.2,95 71.8,95.2 71.8,90.2 72.7,89.2 
				83.9,89.4 			"/>
			<polygon fill="#0CEAF1" points="77.5,107.3 78.9,108.3 79.3,106.4 79.4,106 80,106.4 81.1,107.5 79,109.5 78.4,110.4 78.9,111.2 
				80.2,111.6 79.3,113.4 77.6,114.9 77.5,107.3 			"/>
			<polygon fill="#0CEAF1" points="77.8,125.8 79.9,126.9 79.2,127.9 78.5,131.1 79.5,131.6 78.9,133 78.8,134.1 78.1,137 
				77.9,133.4 77.8,125.8 			"/>
			<polygon fill="#34F8FE" points="96.5,157.3 95.2,155.4 95.8,151.1 95.8,147.5 96.8,146.1 96.5,157.3 			"/>
			<polygon fill="#1FF2F7" points="78.4,138.5 79.1,139.7 79.4,141.6 78.5,144.6 78.6,145.8 78.1,147.9 77.8,144.4 78.1,138.5 
				78.4,138.5 			"/>
			<polygon fill="#1FF2F7" points="96.5,131.9 95.5,128.9 96,127.4 95.5,125.7 95.3,124.8 96.5,122.8 97,122.8 97.1,127.3 
				97.2,128.2 96.9,131.9 96.5,131.9 			"/>
			<polygon fill="#1FF2F7" points="148.4,88.8 142.8,89.2 141.1,90 142.6,88.5 148.4,88.8 			"/>
			<polygon fill="#00E8ED" points="80.2,152.5 80.8,152.7 79.6,155.5 79.3,156.6 78,157.3 78.1,154 80.2,152.5 			"/>
			<polygon fill="#00E8ED" points="80.2,148.8 81.1,150 80.2,151.6 78.2,150.9 78.2,150 80.2,148.8 			"/>
			<polygon fill="#0CEAF1" points="96.8,122.2 96.7,122.1 96.8,117.6 97.3,117.6 97.3,118.8 97.2,120.9 97,122.1 96.8,122.2 			"/>
			<polygon fill="#0CEAF1" points="78.7,120.6 79.2,123.1 79.2,123.8 77.8,124.6 77.8,120 78.7,120.6 78.7,120.6 			"/>
			<polygon fill="#1FF2F7" points="78.2,150.9 80.2,151.6 80.2,152.5 78.1,154 78.2,150.9 			"/>
			<polygon fill="#34F8FE" points="96.6,160.6 95.1,160.6 95.3,158.7 96.5,157.9 96.6,160.6 			"/>
			<polygon fill="#0CEAF1" points="78,157.3 79.3,156.6 79.6,155.5 79.9,155.5 77.7,158.8 78,157.3 			"/>
			<polygon fill="#34F8FE" points="102,161.8 100.7,163.3 99.3,161 102,161.8 			"/>
			<polygon fill="#34F8FE" points="96.5,141.5 96.5,140.3 96.8,140.3 96.8,144.9 96.5,144.3 96.5,141.5 			"/>
			<polygon fill="#34F8FE" points="97.3,117.6 96.8,117.6 96.6,116.1 96.9,115.2 97.2,114.5 97.3,117.6 			"/>
			<polygon fill="#0CEAF1" points="96.8,135.5 95.6,134.8 96.5,133.4 96.8,134.9 96.8,135.5 			"/>
			<polygon fill="#1FF2F7" points="80.2,148.8 78.2,150 78.2,148.8 80.2,148.8 			"/>
			<polygon fill="#34F8FE" points="102.6,171.2 102.6,168.2 102.6,171.2 			"/>
			<polygon fill="#34F8FE" points="114.5,172.5 116.3,173.9 114.5,172.5 			"/>
			<polygon fill="#0CEAF1" points="96.8,140.3 96.5,140.3 95.7,139.5 96.8,138.8 96.8,140.3 			"/>
			<polygon fill="#0CEAF1" points="96.8,137.9 95.6,137.5 96.8,136.7 96.8,137.9 			"/>
			<polygon fill="#34F8FE" points="96.8,134.9 96.5,133.4 96.9,132.4 96.8,134.9 			"/>
			<polygon fill="#34F8FE" points="102.6,166.1 102.6,163.7 102.6,166.1 			"/>
			<polygon fill="#34F8FE" points="97.2,120.9 97.3,118.8 97.2,120.9 			"/>
			<polygon fill="#0CEAF1" points="102.1,126.1 102.6,127.6 102.1,126.1 			"/>
			<polygon fill="#0CEAF1" points="77.5,116.4 77.5,117.9 77.5,116.4 			"/>
			<polygon fill="#34F8FE" points="114.1,170.9 114.5,172.4 114.1,170.9 			"/>
			<polygon fill="#34F8FE" points="97.2,113.7 97.1,112.2 97.2,113.7 			"/>
			<polygon fill="#1FF2F7" points="152.3,88.8 151.1,88.8 152.3,88.8 			"/>
			<polygon fill="#34F8FE" points="97.2,128.2 97.1,127.3 97.2,128.2 			"/>
			<polygon fill="#34F8FE" points="97.1,110.9 97.1,110.2 97.5,110.9 97.1,110.9 			"/>
			<polygon fill="#1FF2F7" points="163.5,88.5 162.9,88.5 163.5,88.5 			"/>
			<polygon fill="#0CEAF1" points="78.4,138.5 78.1,138.5 78.1,137.9 78.4,138.5 			"/>
			<polygon fill="#0CEAF1" points="77.8,118.8 78.3,119.1 77.9,119.4 77.8,118.8 			"/>
			<polygon fill="#34F8FE" points="96.8,122.2 97,122.1 97,122.8 96.5,122.8 96.8,122.2 			"/>
			<polygon fill="#34F8FE" points="96.5,131.9 96.9,131.9 96.9,132.2 96.5,131.9 			"/>
			<polygon fill="#00E8ED" points="125,146.4 126.1,146.7 125.5,147.4 119.3,154 116.2,155.9 115.7,155.5 117.3,153.7 122,149.5 
				124.1,147 125,146.4 			"/>
			<polygon fill="#00E8ED" points="120.5,165.2 120.1,165.3 116.8,168.1 115.6,168.4 115,167.4 115,167 114.7,165.4 116.1,166 
				117.4,165.2 120.2,164.2 120.5,165.2 120.5,165.2 			"/>
			<polygon fill="#0CEAF1" points="104.1,119.7 104.9,119 105.6,120.5 105.6,121.4 105.7,123.2 104.6,125.8 103.8,126.6 
				103.2,125.7 104.5,123.1 104.5,122.3 103.9,122.5 102.9,122.9 103.1,121.8 103.2,120.9 104.1,119.7 			"/>
			<polygon fill="#00E8ED" points="133.2,134.6 129.7,137.1 130.5,135.4 130.9,134 133,131.6 134.1,132.8 133.8,134 133.6,134.3 
				133.2,134.6 			"/>
			<polygon fill="#00E8ED" points="79.6,114.3 79.6,113.4 82,110.9 84.6,110.6 79.9,114.9 79.6,114.3 			"/>
			<polygon fill="#1FF2F7" points="89,139.7 89.1,140.4 86.3,145.3 84.8,145.7 85,144.7 85.2,144.3 86.9,141.8 89,139.7 			"/>
			<polygon fill="#00E8ED" points="103.5,113.1 103.9,113.2 103.4,117.4 102.5,118.4 101.6,118.2 101.1,115.8 103.5,113.1 			"/>
			<path fill="#0CEAF1" d="M166.9,166.7l-2.8,3.8l-1.3,0l0-1.1l3.4-2.9L166.9,166.7L166.9,166.7z M164.5,168.8l0.3-0.3l0.3-0.3
				l0.1-0.1l-0.1,0.1l-0.3,0.3L164.5,168.8l-0.3,0.3l-0.3,0.3l-0.1,0.1l0.1-0.1l0.3-0.3L164.5,168.8L164.5,168.8z"/>
			<polygon fill="#00E8ED" points="114.3,133.3 113.3,133.1 113.9,132.2 114.7,131.1 115.8,130.6 116.5,131.8 114.5,134.9 
				113.8,135 113.8,134.2 114.3,133.3 			"/>
			<polygon fill="#00E8ED" points="93.1,100.3 89.6,103.9 87.2,105.3 86.6,105.1 86.8,104.5 87.9,103.7 93.1,100.3 			"/>
			<polygon fill="#0CEAF1" points="161.1,141 160.1,143.5 155.7,148.8 161.1,140.9 161.1,141 			"/>
			<polygon fill="#00E8ED" points="168.5,149 168.6,150.2 165.3,154.8 164.4,155 164.7,154.2 168,149.3 168.5,149 			"/>
			<polygon fill="#00E8ED" points="162.9,115.2 163.7,113 165.7,110.4 166.8,110.2 167.3,110.7 166.4,111.3 164.2,113.6 164.3,114 
				164.8,114.1 165.9,113.6 164.1,115.5 162.9,115.2 			"/>
			<polygon fill="#00E8ED" points="105,97.6 109.6,94.7 109.5,97.8 108.9,98.6 105,97.6 			"/>
			<polygon fill="#0CEAF1" points="145.7,167.6 145.6,166.2 148.6,163.3 150,163.3 149.4,164.3 146.3,167.1 145.7,167.6 			"/>
			<polygon fill="#0CEAF1" points="167.4,170.3 166.9,169.6 169.7,167.1 170.6,167.2 170.3,168 168.8,169.8 167.4,170.3 			"/>
			<polygon fill="#00E8ED" points="156.3,138.5 154.9,140.1 154.1,140.7 152.5,142.6 154.7,138.2 154.8,138.3 155.1,139.3 
				156.3,138.5 156.3,138.5 			"/>
			<polygon fill="#00E8ED" points="156.9,165.2 158.6,164.8 158.7,165.7 156.6,169.3 155.9,169.3 156,168.7 156.9,166.1 
				156.9,166.1 157.6,165.6 156.9,165.2 156.9,165.2 			"/>
			<polygon fill="#00E8ED" points="89,109.4 89.6,109.8 86.2,114.2 86.9,111.8 87.2,111.2 87.2,111.2 88.1,110 88.1,110 89,109.4 
							"/>
			<polygon fill="#0CEAF1" points="91.4,145.3 90.6,146.4 89.3,145.3 90.5,143.6 91.4,145.3 			"/>
			<polygon fill="#00E8ED" points="162.3,99.7 162.4,101.1 161.7,102.6 160,102.3 160.7,100.8 162.3,99.7 162.3,99.7 			"/>
			<polygon fill="#0CEAF1" points="169.1,145.7 166.3,149.9 165.5,150.1 165.5,149.3 169.1,145.7 			"/>
			<polygon fill="#00E8ED" points="122.9,153.7 122.6,154.3 122.3,154.6 120.7,156.3 122.3,152.7 123.5,152.5 122.9,153.7 			"/>
			<polygon fill="#0CEAF1" points="110.9,142 112.9,138.4 113.9,138.1 113.7,139.1 110.9,142 			"/>
			<polygon fill="#0CEAF1" points="93.1,94.8 88.7,98.5 92.1,94.4 93.1,94.8 			"/>
			<polygon fill="#00E8ED" points="88.4,159.4 87.6,158.7 90,155.1 89.3,158.2 88.4,159.4 			"/>
			<polygon fill="#0CEAF1" points="162.9,115.2 164.1,115.5 164.1,116.1 162.9,117.3 160.9,118.4 162.9,115.2 			"/>
			<polygon fill="#0CEAF1" points="154.7,95.5 152.8,97.5 151.6,97.6 152,96.4 153.8,95.4 154.7,95.5 			"/>
			<polygon fill="#00E8ED" points="154.7,95.5 153.8,95.4 152,96.4 153,94.7 155.8,94.2 154.7,95.5 			"/>
			<polygon fill="#1FF2F7" points="167.3,126.6 163.8,131.5 167.3,126.6 			"/>
			<polygon fill="#00E8ED" points="114.1,160.9 114.6,161.5 114.9,163.9 114.3,164 113.8,161.5 114.1,160.9 			"/>
			<polygon fill="#00E8ED" points="129.7,152.7 127.6,156.2 129.7,152.7 			"/>
			<polygon fill="#0CEAF1" points="173,152.7 173.2,155.7 172.4,156.4 171.9,155.7 173,152.7 			"/>
			<polygon fill="#0CEAF1" points="103.5,113.1 101.1,115.8 101.2,114.7 103.2,112.1 103.5,112.2 103.5,113.1 			"/>
			<polygon fill="#00E8ED" points="116.3,148.2 115.7,147.4 116.6,146.1 117.3,145.8 118.1,147 117.4,147.5 116.3,148.2 
				116.3,148.2 			"/>
			<polygon fill="#0CEAF1" points="96.5,141.5 96.5,144.3 95.3,143.4 96.5,141.5 			"/>
			<polygon fill="#0CEAF1" points="109.8,140.2 108,142.3 109.8,140.2 			"/>
			<polygon fill="#00E8ED" points="89,139.7 86.9,141.8 87.8,139.4 89,139.7 			"/>
			<polygon fill="#1FF2F7" points="82,110.9 79.6,113.4 79.4,113.4 79.3,113.4 80.2,111.6 81.1,110.6 82,110.9 			"/>
			<polygon fill="#1FF2F7" points="173.3,157.3 174.5,160.1 174.4,160.9 173.7,160.4 173.3,157.3 			"/>
			<polygon fill="#34F8FE" points="166.9,166.7 166.3,166.4 169.2,163.6 166.9,166.7 			"/>
			<polygon fill="#00E8ED" points="113.4,155.9 114.3,156.5 112.7,157.8 112.4,157.1 113.4,155.9 			"/>
			<polygon fill="#0CEAF1" points="141.5,129 138.7,131.8 141.5,129 			"/>
			<polygon fill="#1FF2F7" points="179.6,172 179.3,167.2 179.6,172 			"/>
			<polygon fill="#34F8FE" points="77.4,95.7 77.2,95.4 78.2,94 79.2,93.4 79.5,93.7 77.4,95.7 			"/>
			<polygon fill="#0CEAF1" points="94.8,110.3 95.7,107.9 96.3,107.5 96.5,108.3 94.8,110.3 			"/>
			<polygon fill="#00E8ED" points="102.9,111.3 100.9,113.1 100.3,113.1 100.3,112.4 102.9,111.3 			"/>
			<polygon fill="#34F8FE" points="79.6,96.7 80.9,94.7 81.5,94.4 81.6,95.3 79.6,96.7 79.6,96.7 			"/>
			<polygon fill="#00E8ED" points="137.1,123.7 137.4,123.9 135.8,126 135.4,125.7 137.1,123.7 			"/>
			<polygon fill="#1FF2F7" points="133.8,134 134.1,132.8 136.1,131.3 133.8,134 			"/>
			<polygon fill="#00E8ED" points="103.5,112.2 103.2,112.1 103.6,110.7 104.4,110.1 104.9,110.4 104.5,111.3 103.5,112.2 			"/>
			<polygon fill="#0CEAF1" points="160.5,153.1 162.9,150.3 162.9,150.3 160.5,153.1 160.5,153.1 			"/>
			<polygon fill="#0CEAF1" points="86.3,103.1 86.2,103.5 84.5,104.8 84.3,104.4 86.2,103.1 86.3,103.1 			"/>
			<polygon fill="#1FF2F7" points="112,154.4 111.6,155.3 111.1,154.1 111.5,153.2 112,154.4 			"/>
			<polygon fill="#00E8ED" points="160.9,168.8 162.3,166.9 163,166.8 162.9,167.5 160.9,168.8 			"/>
			<polygon fill="#0CEAF1" points="111.4,118.8 111.2,119.6 110.2,120.8 110,120.5 110.7,119.1 111.4,118.8 			"/>
			<polygon fill="#00E8ED" points="117.2,148.5 117.7,149.6 116.3,149.7 117.2,148.5 			"/>
			<polygon fill="#0CEAF1" points="93.8,96.7 91.6,98.6 93.8,96.7 93.8,96.7 			"/>
			<polygon fill="#00E8ED" points="142.2,108.6 143.8,107.1 144,107.3 142.2,108.6 			"/>
			<polygon fill="#1FF2F7" points="139.2,129.3 140.9,127.4 139.2,129.3 			"/>
			<polygon fill="#1FF2F7" points="87.9,90.6 85.4,90.7 87.9,90.6 			"/>
			<polygon fill="#1FF2F7" points="166.3,136.7 164.7,139.3 166.3,136.7 166.3,136.7 			"/>
			<polygon fill="#1FF2F7" points="88.4,159.4 89.3,158.2 89.7,158.9 88.4,160.7 88.4,159.4 			"/>
			<polygon fill="#1FF2F7" points="155.4,112.7 154.9,112.4 155.8,111.6 156.4,112 155.4,112.7 			"/>
			<polygon fill="#1FF2F7" points="79.9,155.5 79.6,155.5 80.8,152.7 81.1,153.7 80.5,154.6 79.9,155.5 			"/>
			<polygon fill="#00E8ED" points="162.3,99.7 162.3,99.6 163.7,98 164,98.2 162.3,99.7 162.3,99.7 			"/>
			<polygon fill="#1FF2F7" points="168.6,133.5 167.3,135.6 168.6,133.5 			"/>
			<polygon fill="#00E8ED" points="161,165.4 160.2,166.1 159.7,165.5 160.6,164.9 161,165.4 			"/>
			<polygon fill="#0CEAF1" points="172,118.5 170.7,120.4 172,118.5 172,118.5 			"/>
			<polygon fill="#0CEAF1" points="96,112.3 94.5,114.2 96,112.3 			"/>
			<polygon fill="#00E8ED" points="88.3,171.4 89.8,169.7 88.3,171.4 			"/>
			<polygon fill="#0CEAF1" points="79.6,96.7 79.4,97.4 79.2,98.4 78.8,98.3 78.9,97 79.6,96.7 79.6,96.7 			"/>
			<polygon fill="#00E8ED" points="162.9,117.3 164.1,116.1 162.9,117.3 			"/>
			<polygon fill="#0CEAF1" points="82.2,141.4 82.8,139.8 83.1,140 82.2,141.4 			"/>
			<polygon fill="#34F8FE" points="155,137.8 156.3,135.9 155.1,138 155,137.8 			"/>
			<polygon fill="#0CEAF1" points="130.5,143.4 129,145.2 130.5,143.4 130.5,143.4 			"/>
			<polygon fill="#0CEAF1" points="173.4,121.3 173.2,123 172.7,122.8 173.4,121.3 			"/>
			<polygon fill="#00E8ED" points="163.1,90.3 164.7,90.6 163.1,90.3 			"/>
			<polygon fill="#1FF2F7" points="80.5,99.4 79.3,101.2 80.5,99.4 80.5,99.4 			"/>
			<polygon fill="#1FF2F7" points="170.7,161.4 170.1,163.1 170.7,161.4 			"/>
			<polygon fill="#0CEAF1" points="81.1,98.5 82.1,97 81.4,98.8 81.1,98.5 			"/>
			<polygon fill="#0CEAF1" points="171.1,105.1 172.2,103.7 171.1,105.1 			"/>
			<polygon fill="#0CEAF1" points="107.2,106.5 106.5,108.3 107.2,106.5 			"/>
			<polygon fill="#1FF2F7" points="89,133.1 90,131.2 89,133.1 89,133.1 			"/>
			<polygon fill="#00E8ED" points="92.3,167 90.9,168.6 92.3,167 			"/>
			<polygon fill="#00E8ED" points="154.7,167.9 153,169.1 154.7,167.9 154.7,167.9 			"/>
			<polygon fill="#0CEAF1" points="94.1,96.4 94.1,95.9 94.5,95 95.1,95.2 94.5,96.2 94.1,96.4 94.1,96.4 			"/>
			<polygon fill="#00E8ED" points="115,129.1 113.9,130.7 115,129.1 115,129.1 			"/>
			<polygon fill="#0CEAF1" points="104.7,96.3 103.7,97.9 104.7,96.3 			"/>
			<polygon fill="#34F8FE" points="117.2,148.5 116.3,149.7 116,149.8 115.9,149.7 116.3,148.2 116.3,148.2 117.2,148.5 			"/>
			<polygon fill="#1FF2F7" points="162.9,103.9 161.8,105.3 162.9,103.9 			"/>
			<polygon fill="#00E8ED" points="160.2,134.3 159.1,135.4 160.2,134.3 160.2,134.3 			"/>
			<polygon fill="#0CEAF1" points="125,146.4 124.1,147 125.3,145.5 125.4,145.5 125,146.4 			"/>
			<polygon fill="#00E8ED" points="156.9,166.1 155.7,166.7 155.6,166.7 156.9,165.2 156.9,165.2 156.9,166.1 156.9,166.1 			"/>
			<polygon fill="#1FF2F7" points="173.8,110.8 173.3,111.2 172.8,110.8 173.3,110.4 173.8,110.8 			"/>
			<polygon fill="#0CEAF1" points="170.5,143.7 169.4,145.1 170.5,143.7 			"/>
			<polygon fill="#1FF2F7" points="163.2,103.4 164.3,102.2 163.2,103.4 163.2,103.4 			"/>
			<polygon fill="#0CEAF1" points="174.3,99.9 175.2,98.9 174.3,99.9 			"/>
			<polygon fill="#1FF2F7" points="122.9,153.7 123.5,152.5 124,152.8 122.9,153.7 			"/>
			<polygon fill="#0CEAF1" points="163.9,105.2 164.9,104.1 163.9,105.2 			"/>
			<polygon fill="#0CEAF1" points="141.1,123.4 140,124.6 141.1,123.4 141.1,123.4 			"/>
			<polygon fill="#00E8ED" points="163.1,91.9 162.6,92.3 162.1,91.9 162.6,91.6 163.1,91.9 			"/>
			<polygon fill="#00E8ED" points="120.5,165.2 121.3,165.3 120.7,166.1 120.5,165.2 120.5,165.2 			"/>
			<polygon fill="#00E8ED" points="155.7,166.7 154.7,167.9 154.7,167.9 155.6,166.7 155.7,166.7 			"/>
			<polygon fill="#0CEAF1" points="123.2,167.3 122.1,168.4 123.2,167.3 123.2,167.3 			"/>
			<polygon fill="#1FF2F7" points="173.2,134.7 173.2,133.4 173.2,134.7 			"/>
			<polygon fill="#0CEAF1" points="126.8,156.6 126.1,157.8 126.8,156.6 			"/>
			<polygon fill="#00E8ED" points="96.9,115.2 96.6,116.1 95.8,115.7 96.9,115.2 			"/>
			<polygon fill="#1FF2F7" points="89,133.1 88.1,134.6 88.1,134.6 89,133.1 89,133.1 			"/>
			<polygon fill="#1FF2F7" points="144.2,90.6 145.5,90.8 144.2,90.6 			"/>
			<polygon fill="#1FF2F7" points="88.1,134.6 87.2,136.1 87.2,136.1 88.1,134.6 88.1,134.6 			"/>
			<polygon fill="#00E8ED" points="112.4,132.3 112.8,132 113.2,132.5 112.9,132.8 112.4,132.3 			"/>
			<polygon fill="#0CEAF1" points="138,132.9 137.6,133.2 137.2,132.9 137.6,132.5 138,132.9 			"/>
			<polygon fill="#00E8ED" points="117.5,141.9 116.7,143 117.5,141.8 117.5,141.9 			"/>
			<polygon fill="#34F8FE" points="115,151 115.9,149.7 116,149.8 115,151 115,151 			"/>
			<polygon fill="#00E8ED" points="107.4,100 106.2,99.9 107.4,100 			"/>
			<polygon fill="#1FF2F7" points="163.5,140.9 164.3,139.8 163.6,141 163.5,140.9 			"/>
			<polygon fill="#1FF2F7" points="89,109.4 88.1,110 88.6,108.9 89,109.4 			"/>
			<polygon fill="#1FF2F7" points="88.1,110 87.2,111.2 88.1,110 			"/>
			<polygon fill="#0CEAF1" points="98.2,108 97.9,108.5 97.5,108.1 97.8,107.7 98.2,108 			"/>
			<polygon fill="#00E8ED" points="104.1,119.7 103.2,120.9 104.1,119.7 			"/>
			<polygon fill="#0CEAF1" points="108.3,117.2 108,118.2 107.6,118 108.3,117.2 			"/>
			<polygon fill="#00E8ED" points="90.3,106.7 89.8,107.9 90.3,106.7 			"/>
			<polygon fill="#0CEAF1" points="132.6,143.1 133.1,142.3 133.4,142.5 132.6,143.1 132.6,143.1 			"/>
			<polygon fill="#00E8ED" points="85.3,109.9 84.9,109.6 85.2,109.3 85.5,109.6 85.3,109.9 			"/>
			<polygon fill="#00E8ED" points="92.8,165.8 93.1,166.1 92.8,166.6 92.4,166.3 92.8,165.8 			"/>
			<polygon fill="#00E8ED" points="156.3,138.5 156.8,137.7 157,138 156.3,138.5 156.3,138.5 			"/>
			<polygon fill="#34F8FE" points="154.8,161.9 153.8,162.8 153.8,162.8 154.7,161.8 154.8,161.9 			"/>
			<polygon fill="#00E8ED" points="115,147 115.8,145.9 115,147 115,147 			"/>
			<polygon fill="#00E8ED" points="89,114.9 88.6,115.3 88.2,115.1 88.6,114.7 89,114.9 			"/>
			<polygon fill="#0CEAF1" points="99.6,101.8 100,101.4 100.4,101.6 100,102 99.6,101.8 			"/>
			<polygon fill="#00E8ED" points="87.2,116.4 87.6,115.9 87.9,116.2 87.6,116.6 87.2,116.4 			"/>
			<polygon fill="#0CEAF1" points="166.9,102.2 166.3,102.9 166.1,102.7 166.9,102.1 166.9,102.2 			"/>
			<polygon fill="#00E8ED" points="164.7,99.7 164.2,100.5 164,100.2 164.7,99.7 164.7,99.7 			"/>
			<polygon fill="#0CEAF1" points="159.3,157.3 159.8,156.5 160.1,156.8 159.3,157.3 159.3,157.3 			"/>
			<polygon fill="#0CEAF1" points="101.1,100 101.5,99.6 101.9,99.8 101.5,100.2 101.1,100 			"/>
			<polygon fill="#0CEAF1" points="80.5,154.6 81.1,153.7 80.5,154.6 			"/>
			<polygon fill="#0CEAF1" points="172.3,124.3 172.7,123.8 173.1,124.1 172.7,124.5 172.3,124.3 			"/>
			<polygon fill="#0CEAF1" points="169.9,121.5 169.5,122 169.1,121.8 169.5,121.4 169.9,121.5 			"/>
			<polygon fill="#0CEAF1" points="110.2,139.7 110,139.3 110.4,139 110.6,139.3 110.2,139.7 			"/>
			<polygon fill="#1FF2F7" points="153.2,123.4 153.4,123.8 153,124.2 152.8,123.8 153.2,123.4 			"/>
			<polygon fill="#0CEAF1" points="154.8,134.3 155.2,134.5 154.9,134.8 154.6,134.6 154.8,134.3 			"/>
			<polygon fill="#1FF2F7" points="87.2,136.1 86.6,137.3 87.2,136.1 87.2,136.1 			"/>
			<polygon fill="#00E8ED" points="90.6,108.6 90.3,109 90,108.7 90.4,108.3 90.6,108.6 			"/>
			<polygon fill="#0CEAF1" points="156.6,126.4 156.3,127.1 156,126.9 156.6,126.4 156.6,126.4 			"/>
			<polygon fill="#1FF2F7" points="155,122.5 154.6,122.7 154.3,122.4 154.6,122.2 155,122.5 			"/>
			<polygon fill="#0CEAF1" points="79.6,114.3 79.9,114.9 79.4,115 79.6,114.3 			"/>
			<polygon fill="#1FF2F7" points="173.4,131.5 173.3,132.4 173.4,131.5 			"/>
			<polygon fill="#0CEAF1" points="111.7,137.6 111.3,138.3 111.1,138.1 111.7,137.6 111.7,137.6 			"/>
			<polygon fill="#1FF2F7" points="145.8,170.4 145.6,170.5 145.5,170.2 145.8,170.2 145.8,170.4 			"/>
			<polygon fill="#00E8ED" points="159.2,136.8 159.4,136.9 159.3,137.2 159.1,137.1 159.2,136.8 			"/>
			<polygon fill="#00E8ED" points="89.2,137.8 89.1,138.1 88.8,138 88.9,137.7 89.2,137.8 			"/>
			<polygon fill="#1FF2F7" points="143.4,90.7 143.2,90.8 143.1,90.6 143.3,90.5 143.4,90.7 			"/>
			<polygon fill="#00E8ED" points="158.9,163.2 158.6,163.2 158.5,163 158.8,162.9 158.9,163.2 			"/>
			<polygon fill="#1FF2F7" points="87.5,161.5 87.8,161.1 87.9,161.2 87.5,161.6 87.5,161.5 			"/>
			<polygon fill="#0CEAF1" points="171.4,157 171,157.5 171,157.4 171.4,157 171.4,157 			"/>
			<polygon fill="#0CEAF1" points="161,155.4 160.9,155.7 160.6,155.6 160.8,155.3 161,155.4 			"/>
			<polygon fill="#00E8ED" points="128.5,152.7 128.2,152.5 128.3,152.3 128.5,152.4 128.5,152.7 			"/>
			<polygon fill="#00E8ED" points="164.7,99.7 165.1,99.3 165.2,99.4 164.7,99.7 164.7,99.7 			"/>
			<polygon fill="#1FF2F7" points="124.6,151.9 124.4,152 124.3,151.8 124.5,151.7 124.6,151.9 			"/>
			<polygon fill="#1FF2F7" points="125,151.1 124.9,150.9 125.1,150.8 125.2,151 125,151.1 			"/>
			<polygon fill="#0CEAF1" points="161.4,140.6 161.8,140.2 161.9,140.3 161.4,140.7 161.4,140.6 			"/>
			<polygon fill="#1FF2F7" points="162.9,141.5 163.5,140.9 163.6,141 162.9,141.6 162.9,141.5 			"/>
			<polygon fill="#0CEAF1" points="125.3,145.5 125.7,145 125.8,145.1 125.4,145.5 125.3,145.5 			"/>
			<polygon fill="#1FF2F7" points="161.1,144 161.7,143.4 161.7,143.4 161.1,144 161.1,144 			"/>
			<polygon fill="#1FF2F7" points="162.6,142.2 162,142.8 162,142.8 162.6,142.1 162.6,142.2 			"/>
			<polygon fill="#1FF2F7" points="166.6,136.4 166.9,135.9 167,136 166.6,136.4 166.6,136.4 			"/>
			<polygon fill="#0CEAF1" points="109.5,121.8 109.4,122 109.1,121.9 109.2,121.7 109.5,121.8 			"/>
			<polygon fill="#0CEAF1" points="108.6,119.3 108.4,119.6 108.2,119.5 108.3,119.2 108.6,119.3 			"/>
			<polygon fill="#0CEAF1" points="156.6,126.4 156.9,125.9 157,126 156.6,126.4 156.6,126.4 			"/>
			<polygon fill="#1FF2F7" points="165.3,107 165.6,106.5 165.8,106.7 165.4,107 165.3,107 			"/>
			<polygon fill="#00E8ED" points="84.4,115.9 84.6,116 84.5,116.3 84.3,116.1 84.4,115.9 			"/>
			<polygon fill="#00E8ED" points="113.7,131.2 113.6,131.4 113.4,131.3 113.5,131.1 113.7,131.2 			"/>
			<polygon fill="#1FF2F7" points="142.6,112.2 142,112.8 142,112.7 142.6,112.1 142.6,112.2 			"/>
			<polygon fill="#0CEAF1" points="162,107.3 161.7,107.8 161.6,107.7 162,107.3 162,107.3 			"/>
			<polygon fill="#1FF2F7" points="86.6,134.6 86.9,133.9 87.1,133.9 86.6,134.6 86.6,134.6 			"/>
			<polygon fill="#00E8ED" points="112.8,133.8 113.1,133.9 113,134.1 112.7,134 112.8,133.8 			"/>
			<polygon fill="#0CEAF1" points="78.7,120.6 79,120.2 79.2,120.4 78.7,120.6 78.7,120.6 			"/>
			<polygon fill="#1FF2F7" points="87.2,111.2 86.9,111.8 86.7,111.9 86.6,111.8 86.6,111.8 87.2,111.2 			"/>
			<polygon fill="#0CEAF1" points="160.9,135.1 160.8,135.3 160.6,135.2 160.7,135 160.9,135.1 			"/>
			<polygon fill="#0CEAF1" points="131.5,144.2 131.6,144.2 131.6,144.3 131.5,144.3 131.5,144.2 			"/>
			<polygon fill="#1FF2F7" points="161.1,144 160.8,144.6 160.8,144.6 161.1,144 161.1,144 			"/>
			<polygon fill="#1FF2F7" points="87.5,161.6 87.2,162.2 87.2,162.2 87.5,161.5 87.5,161.6 			"/>
			<polygon fill="#1FF2F7" points="162,142.8 161.7,143.4 161.7,143.4 162,142.8 162,142.8 			"/>
			<polygon fill="#0CEAF1" points="159.3,157.3 159.2,157.7 159.1,157.6 159.3,157.3 159.3,157.3 			"/>
			<polygon fill="#1FF2F7" points="162.6,142.1 162.9,141.5 162.9,141.6 162.6,142.2 162.6,142.1 			"/>
			<polygon fill="#1FF2F7" points="146.7,169 146.8,169.1 146.7,169.2 146.6,169.2 146.7,169 			"/>
			<polygon fill="#00E8ED" points="167.9,108.1 167.8,108.1 167.7,108 167.9,108.1 			"/>
			<polygon fill="#0CEAF1" points="162,133.7 162.1,133.3 162.2,133.3 162,133.7 162,133.7 			"/>
			<polygon fill="#1FF2F7" points="86.6,111.8 86.2,112.5 86.3,112.5 86.6,111.8 86.6,111.8 			"/>
			<polygon fill="#0CEAF1" points="112,137 111.7,137.6 111.7,137.6 112,137 112,137 			"/>
			<polygon fill="#0CEAF1" points="162.9,150.3 163,149.9 163.2,150 162.9,150.3 162.9,150.3 			"/>
			<polygon fill="#0CEAF1" points="85.3,136.7 85.6,136.1 85.6,136.1 85.3,136.7 85.3,136.7 			"/>
			<polygon fill="#1FF2F7" points="86.6,134.6 86.3,135.2 86.2,135.2 86.6,134.6 86.6,134.6 			"/>
			<polygon fill="#00E8ED" points="167.2,109.1 167.3,108.7 167.4,108.8 167.2,109.1 167.2,109.1 			"/>
			<polygon fill="#1FF2F7" points="145.5,171.5 145.6,171.6 145.4,171.6 145.4,171.5 145.5,171.5 			"/>
			<polygon fill="#0CEAF1" points="160.2,153.4 160.1,153.8 160,153.7 160.2,153.4 160.2,153.4 			"/>
			<polygon fill="#1FF2F7" points="140.8,113.7 140.7,113.8 140.8,113.7 140.8,113.7 			"/>
			<polygon fill="#34F8FE" points="155.3,160.9 155.6,160.6 155.7,160.7 155.4,161 155.3,160.9 			"/>
			<polygon fill="#34F8FE" points="155.6,160.6 155.8,160.5 155.7,160.7 155.6,160.6 			"/>
			<polygon fill="#1FF2F7" points="80.8,99.1 81.1,98.8 81.1,98.8 80.8,99.1 80.8,99.1 			"/>
			<polygon fill="#1FF2F7" points="81.1,98.5 81.4,98.8 81.1,98.8 81.1,98.8 81.1,98.5 			"/>
			<polygon fill="#0CEAF1" points="124.1,160.3 124.1,160.5 124.1,160.3 124.1,160.3 			"/>
			<polygon fill="#0CEAF1" points="124.1,160.3 124.2,160.2 124.1,160.3 124.1,160.3 			"/>
			<polygon fill="#0CEAF1" points="125,159.1 125,159.3 125,159.1 125,159.1 			"/>
			<polygon fill="#0CEAF1" points="125,159.1 125.1,159 125,159.1 125,159.1 			"/>
			<polygon fill="#0CEAF1" points="160.5,153.1 160.2,153.4 160.2,153.4 160.5,153.1 160.5,153.1 			"/>
			<polygon fill="#0CEAF1" points="172.3,118.2 172.4,118.1 172.3,118.2 172.3,118.2 			"/>
			<polygon fill="#0CEAF1" points="172,118.5 172.3,118.2 172.3,118.2 172,118.5 172,118.5 			"/>
			<polygon fill="#0CEAF1" points="171.4,157 171.5,156.9 171.4,157 171.4,157 			"/>
			<polygon fill="#1FF2F7" points="122.3,154.6 122.6,154.3 122.3,154.6 			"/>
			<polygon fill="#00E8ED" points="167.2,109.1 166.9,109.4 166.9,109.4 167.2,109.1 167.2,109.1 			"/>
			<polygon fill="#1FF2F7" points="72.9,97.9 73,97.8 72.9,97.9 72.9,97.9 			"/>
			<polygon fill="#0CEAF1" points="163.2,105.8 163.2,105.9 163.2,105.8 163.2,105.8 			"/>
			<polygon fill="#00E8ED" points="166.9,109.4 166.8,109.5 166.9,109.4 166.9,109.4 			"/>
			<polygon fill="#0CEAF1" points="159.3,110.3 159.4,110.2 159.3,110.3 159.3,110.3 			"/>
			<polygon fill="#1FF2F7" points="165.1,107.3 164.9,107.4 165,107.3 165.1,107.3 			"/>
			<polygon fill="#0CEAF1" points="123.2,167.3 123.3,167.2 123.2,167.3 123.2,167.3 			"/>
			<polygon fill="#0CEAF1" points="159,110.6 159.3,110.3 159.3,110.3 159,110.6 159,110.6 			"/>
			<polygon fill="#0CEAF1" points="159,110.6 158.7,110.9 158.7,110.9 159,110.6 159,110.6 			"/>
			<polygon fill="#0CEAF1" points="158.7,110.9 158.6,111.1 158.7,110.9 158.7,110.9 			"/>
			<polygon fill="#1FF2F7" points="142.9,111.8 143.1,111.7 142.9,111.9 142.9,111.8 			"/>
			<polygon fill="#1FF2F7" points="142.9,111.9 142.6,112.2 142.6,112.1 142.9,111.8 142.9,111.9 			"/>
			<polygon fill="#1FF2F7" points="165.4,107 165.1,107.3 165,107.3 165.3,107 165.4,107 			"/>
			<polygon fill="#1FF2F7" points="86.2,112.5 86.2,112.6 86.3,112.5 86.2,112.5 			"/>
			<polygon fill="#1FF2F7" points="142,112.8 141.7,113.1 141.7,113.1 142,112.8 142,112.8 			"/>
			<polygon fill="#34F8FE" points="153.8,162.8 153.7,162.9 153.7,162.8 153.8,162.8 153.8,162.8 			"/>
			<polygon fill="#1FF2F7" points="87.2,162.2 87,162.3 87.2,162.2 87.2,162.2 			"/>
			<polygon fill="#0CEAF1" points="162,107.3 162.1,107.2 162,107.3 162,107.3 			"/>
			<polygon fill="#34F8FE" points="154.7,161.8 154.9,161.7 154.8,161.9 154.7,161.8 			"/>
			<polygon fill="#1FF2F7" points="141.7,113.1 141.6,113.2 141.7,113.1 141.7,113.1 			"/>
			<polygon fill="#34F8FE" points="155.4,161 155.2,161.1 155.3,160.9 155.4,161 			"/>
			<polygon fill="#0CEAF1" points="94.1,96.4 93.8,96.7 93.8,96.7 94.1,96.4 94.1,96.4 			"/>
			<polygon fill="#1FF2F7" points="140.8,113.7 140.9,113.5 140.8,113.7 140.8,113.7 			"/>
			<polygon fill="#0CEAF1" points="167.2,101.9 166.9,102.2 166.9,102.1 167.2,101.8 167.2,101.9 			"/>
			<polygon fill="#0CEAF1" points="162,133.7 161.7,134 161.7,134 162,133.7 162,133.7 			"/>
			<polygon fill="#0CEAF1" points="162.3,139.4 162.4,139.3 162.3,139.4 162.3,139.4 			"/>
			<polygon fill="#0CEAF1" points="162.3,139.4 162.3,139.6 162.3,139.4 162.3,139.4 			"/>
			<polygon fill="#0CEAF1" points="167.2,101.8 167.5,101.5 167.5,101.6 167.2,101.9 167.2,101.8 			"/>
			<polygon fill="#0CEAF1" points="167.5,101.5 167.5,101.4 167.5,101.6 167.5,101.5 			"/>
			<polygon fill="#0CEAF1" points="86.2,103.1 86.3,102.9 86.3,103.1 86.2,103.1 			"/>
			<polygon fill="#0CEAF1" points="161.4,140.7 161.1,141 161.1,140.9 161.4,140.6 161.4,140.7 			"/>
			<polygon fill="#0CEAF1" points="173.2,100.9 173.2,101.1 173.2,100.9 173.2,100.9 			"/>
			<polygon fill="#1FF2F7" points="165.4,100.9 165.2,101.1 165.3,101 165.4,100.9 165.4,100.9 			"/>
			<polygon fill="#00E8ED" points="117.5,141.8 117.5,141.7 117.5,141.9 117.5,141.8 			"/>
			<polygon fill="#0CEAF1" points="131.7,142.2 131.8,142 131.7,142.2 131.7,142.2 			"/>
			<polygon fill="#0CEAF1" points="131.7,142.2 131.4,142.5 131.4,142.5 131.7,142.2 131.7,142.2 			"/>
			<polygon fill="#00E8ED" points="158.1,136.7 158.2,136.6 158.1,136.7 158.1,136.7 			"/>
			<polygon fill="#1FF2F7" points="166.6,136.4 166.3,136.7 166.3,136.7 166.6,136.4 166.6,136.4 			"/>
			<polygon fill="#0CEAF1" points="85.3,136.7 85.3,136.8 85.3,136.7 85.3,136.7 			"/>
			<polygon fill="#1FF2F7" points="85.6,136.1 85.7,136 85.6,136.1 85.6,136.1 			"/>
			<polygon fill="#0CEAF1" points="112,137 112.1,136.9 112,137 112,137 			"/>
			<polygon fill="#00E8ED" points="158.1,136.7 158,136.8 158.1,136.7 158.1,136.7 			"/>
			<polygon fill="#1FF2F7" points="86.3,135.2 86.2,135.3 86.2,135.2 86.3,135.2 			"/>
			<polygon fill="#1FF2F7" points="86.6,137.3 86.5,137.4 86.4,137.4 86.6,137.3 			"/>
			<polygon fill="#0CEAF1" points="161.4,134.3 161.3,134.4 161.4,134.3 161.4,134.3 			"/>
			<polygon fill="#1FF2F7" points="133.2,134.6 133.6,134.3 133.2,134.6 			"/>
			<polygon fill="#0CEAF1" points="99.3,102.8 99.4,102.6 99.3,102.8 99.3,102.8 			"/>
			<polygon fill="#34F8FE" points="154.7,138.2 155,137.8 155.1,138 154.8,138.3 154.7,138.2 			"/>
			<polygon fill="#0CEAF1" points="161.7,134 161.4,134.3 161.4,134.3 161.7,134 161.7,134 			"/>
			<polygon fill="#00E8ED" points="160.2,134.3 160.3,134.1 160.2,134.3 160.2,134.3 			"/>
			<polygon fill="#00E8ED" points="115,147 115,147.1 115,147 115,147 			"/>
			<polygon fill="#1FF2F7" points="166,100.3 166.3,100 166.3,100 166,100.3 166,100.3 			"/>
			<polygon fill="#1FF2F7" points="166.3,100 166.4,99.9 166.3,100 166.3,100 			"/>
			<polygon fill="#0CEAF1" points="158.1,124.9 158,125 158.1,124.9 158.1,124.9 			"/>
			<polygon fill="#0CEAF1" points="158.1,124.9 158.4,124.6 158.4,124.6 158.1,124.9 158.1,124.9 			"/>
			<polygon fill="#0CEAF1" points="158.4,124.6 158.5,124.5 158.4,124.6 158.4,124.6 			"/>
			<polygon fill="#00E8ED" points="115,151 115,151.1 115,151 115,151 			"/>
			<polygon fill="#0CEAF1" points="141.1,123.4 141.2,123.2 141.1,123.4 141.1,123.4 			"/>
			<polygon fill="#1FF2F7" points="80.5,99.4 80.8,99.1 80.8,99.1 80.5,99.4 80.5,99.4 			"/>
			<polygon fill="#0CEAF1" points="163.2,105.8 163.3,105.7 163.2,105.8 163.2,105.8 			"/>
			<polygon fill="#0CEAF1" points="99.3,102.8 99,103.1 99,103.1 99.3,102.8 99.3,102.8 			"/>
			<polygon fill="#0CEAF1" points="131.1,142.8 131.4,142.5 131.4,142.5 131.1,142.8 131.1,142.8 			"/>
			<polygon fill="#0CEAF1" points="131.1,142.8 130.8,143.1 130.8,143.1 131.1,142.8 131.1,142.8 			"/>
			<polygon fill="#0CEAF1" points="130.5,143.4 130.8,143.1 130.8,143.1 130.5,143.4 130.5,143.4 			"/>
			<polygon fill="#0CEAF1" points="132.6,143.1 132.6,143.2 132.6,143.1 132.6,143.1 			"/>
			<polygon fill="#0CEAF1" points="173.2,100.9 173.5,100.6 173.5,100.6 173.2,100.9 173.2,100.9 			"/>
			<polygon fill="#0CEAF1" points="99,103.1 98.9,103.2 99,103.1 99,103.1 			"/>
			<polygon fill="#1FF2F7" points="160.8,144.6 160.7,144.7 160.8,144.6 160.8,144.6 			"/>
			<polygon fill="#1FF2F7" points="165.7,100.6 165.4,100.9 165.4,100.9 165.7,100.6 165.7,100.6 			"/>
			<polygon fill="#1FF2F7" points="163.2,103.4 163.2,103.5 163.2,103.4 163.2,103.4 			"/>
			<polygon fill="#0CEAF1" points="173.5,100.6 173.6,100.5 173.5,100.6 173.5,100.6 			"/>
			<polygon fill="#00E8ED" points="115,129.1 115.1,129 115,129.1 115,129.1 			"/>
			<polygon fill="#1FF2F7" points="165.7,100.6 166,100.3 166,100.3 165.7,100.6 165.7,100.6 			"/>
			<polygon fill="#34F8FE" points="163.8,169.4 164.1,169.1 164.2,169.1 163.8,169.4 163.8,169.4 			"/>
			<polygon fill="#34F8FE" points="163.8,169.4 163.7,169.6 163.8,169.4 163.8,169.4 			"/>
			<polygon fill="#34F8FE" points="165.1,168.2 164.8,168.5 164.7,168.5 165,168.2 165.1,168.2 			"/>
			<polygon fill="#34F8FE" points="165,168.2 165.2,168.1 165.1,168.2 165,168.2 			"/>
			<polygon fill="#34F8FE" points="164.4,168.8 164.7,168.5 164.8,168.5 164.5,168.8 164.4,168.8 			"/>
			<polygon fill="#34F8FE" points="164.1,169.1 164.4,168.8 164.5,168.8 164.2,169.1 164.1,169.1 			"/>
			<polygon fill="#00E3EA" points="156.9,166.1 156.9,165.2 157.6,165.6 156.9,166.1 			"/>
		</g>
	</g>
</g>
</svg>
